SplineFontDB: 3.0
FontName: GanjNamehSans-Regular
FullName: GanjNamehSans Regular
FamilyName: GanjNamehSans
Weight: Regular
Copyright: Copyright (c) 2016 Copyright Holder (info@font-store.ir), with Reserved Font Name "Ganjnameh"
UComments: "2015-5-13: Created with FontForge (http://fontforge.org)"
Version: Version:0.0.1;RFB:1.2.5;Building:2016-04-12 18:26:10.990184
FONDName: RITA
ItalicAngle: 0
UnderlinePosition: 500
UnderlineWidth: 59
Ascent: 800
Descent: 500
InvalidEm: 0
sfntRevision: 0x00010000
LayerCount: 2
Layer: 0 0 "Back" 1
Layer: 1 0 "Fore" 0
PreferredKerning: 4
XUID: [1021 828 -1901974348 32649]
StyleMap: 0x0040
FSType: 0
OS2Version: 0
OS2_WeightWidthSlopeOnly: 0
OS2_UseTypoMetrics: 0
CreationTime: 1431477301
ModificationTime: 1460469370
PfmFamily: 33
TTFWeight: 400
TTFWidth: 5
LineGap: 100
VLineGap: 0
Panose: 2 0 5 3 0 0 0 0 0 0
OS2TypoAscent: 800
OS2TypoAOffset: 0
OS2TypoDescent: -500
OS2TypoDOffset: 0
OS2TypoLinegap: 100
OS2WinAscent: 1100
OS2WinAOffset: 0
OS2WinDescent: 700
OS2WinDOffset: 0
HheadAscent: 1100
HheadAOffset: 0
HheadDescent: -700
HheadDOffset: 0
OS2SubXSize: 780
OS2SubYSize: 839
OS2SubXOff: -107
OS2SubYOff: 168
OS2SupXSize: 780
OS2SupYSize: 839
OS2SupXOff: 369
OS2SupYOff: 575
OS2StrikeYSize: 59
OS2StrikeYPos: 310
OS2Vendor: 'RITA'
OS2CodePages: 00000040.00000000
OS2UnicodeRanges: 80002003.80002000.00000008.00000000
MacStyle: 0
Lookup: 4 1 1 "'ccmp' Glyph Composition/Decomposition in Arabic lookup 5" { "'ccmp' Glyph Composition/Decomposition in Arabic lookup 5-1"  } ['ccmp' ('DFLT' <'dflt' > 'arab' <'dflt' > ) ]
Lookup: 1 9 0 "'isol' Isolated Forms in Latin lookup 1" { "'isol' Isolated Forms in Latin lookup 1-1"  } ['isol' ('DFLT' <'dflt' > 'arab' <'dflt' > ) ]
Lookup: 1 9 0 "'fina' Terminal Forms in Arabic lookup 3" { "'fina' Terminal Forms in Arabic lookup 3-1"  } ['fina' ('DFLT' <'dflt' > 'arab' <'dflt' > ) ]

StartChar: _.alef.isol
Encoding: 65536 -1 0
GlifName: _.alef.isol
Width: 218
VWidth: 1304
GlyphClass: 2
Flags: HMW
LayerCount: 2
Fore
SplineSet
64 -20 m 1
 64 779 l 1
 154 800 l 1
 154 -0 l 1
 64 -20 l 1
EndSplineSet
Colour: ffda6b
EndChar

StartChar: _.alef.fina
Encoding: 65537 -1 1
GlifName: _.alef.fina
Width: 304
VWidth: 1304
GlyphClass: 2
Flags: HMW
LayerCount: 2
Fore
SplineSet
64 194 m 2
 64 780 l 1
 154 800 l 1
 154 214 l 2
 154 127 208 100 255 100 c 2
 304 100 l 1
 304 -0 l 1
 255 -0 l 2
 105 0 64 99 64 194 c 2
EndSplineSet
Colour: ffda6b
EndChar

StartChar: _.beh.isol
Encoding: 65540 -1 4
GlifName: _.beh.isol
Width: 924
VWidth: 1304
GlyphClass: 2
UnlinkRmOvrlpSave: 1
Flags: HMW
LayerCount: 2
Fore
SplineSet
64 217 m 0
 64 272 79 340 110 421 c 1
 187 386 l 1
 163 331 150 284 150 244 c 0
 150 150 224 100 416 100 c 0
 579 100 764 118 764 207 c 0
 764 211 764 214 763 218 c 0
 754 262 730 317 704 381 c 1
 797 421 l 1
 825 359 845 304 856 255 c 0
 857 253 857 248 857 246 c 0
 859 232 860 219 860 206 c 0
 860 14 631 0 414 -0 c 0
 192 0 64 55 64 217 c 0
EndSplineSet
Colour: ffda6b
EndChar

StartChar: _.beh.fina
Encoding: 65541 -1 5
GlifName: _.beh.fina
Width: 1003
VWidth: 1304
GlyphClass: 2
UnlinkRmOvrlpSave: 1
Flags: HMW
LayerCount: 2
Fore
SplineSet
64 217 m 0
 64 272 79 340 110 421 c 1
 187 386 l 1
 163 331 150 284 150 244 c 0
 150 150 224 100 416 100 c 0
 535 100 666 110 728 149 c 1
 728 150 l 1
 790 191 786 271 788 341 c 1
 882 341 l 1
 882 333 882 323 882 312 c 0
 882 265 877 200 864 150 c 1
 892 107 933 101 985 101 c 0
 991 101 997 101 1003 101 c 1
 1003 -0 l 1
 942 -0 l 2
 877 0 832 23 789 64 c 1
 704 5 557 0 414 -0 c 0
 192 0 64 55 64 217 c 0
EndSplineSet
Colour: ffda6b
EndChar

StartChar: _.beh.medi
Encoding: 65542 -1 6
GlifName: _.beh.medi
Width: 461
VWidth: 1304
GlyphClass: 2
UnlinkRmOvrlpSave: 1
Flags: HMW
LayerCount: 2
Fore
SplineSet
-50 50 m 0
 -49 75 -27 99 -2 100 c 1
 83 100 l 2
 140 100 201 116 201 184 c 2
 201 321 l 1
 301 321 l 1
 301 184 l 2
 301 108 360 100 420 100 c 2
 461 100 l 1
 461 -0 l 1
 425 -0 l 2
 340 0 283 19 255 55 c 1
 218 18 161 0 83 -0 c 2
 0 -0 l 1
 -25 1 -50 24 -50 50 c 0
EndSplineSet
Colour: ffda6b
EndChar

StartChar: _.beh.init
Encoding: 65543 -1 7
GlifName: _.beh.init
Width: 375
VWidth: 1197
GlyphClass: 1
UnlinkRmOvrlpSave: 1
Flags: HMW
LayerCount: 2
Fore
SplineSet
-50 50 m 0
 -50 75 -26 99 -3 100 c 1
 71 100 l 2
 177 100 213 130 213 183 c 0
 213 232 182 299 149 381 c 1
 242 421 l 1
 287 325 311 243 311 178 c 0
 311 62 235 0 74 -0 c 2
 -3 -0 l 1
 -26 1 -50 24 -50 50 c 0
EndSplineSet
Colour: ffda6b
EndChar

StartChar: _.heh.isol
Encoding: 65544 -1 8
GlifName: _.heh.isol
Width: 766
VWidth: 1304
GlyphClass: 1
UnlinkRmOvrlpSave: 1
Flags: HMW
LayerCount: 2
Fore
SplineSet
68 -105 m 0
 68 45 181 208 406 282 c 1
 315 319 249 361 206 361 c 0
 192 361 181 357 172 347 c 2
 123 288 l 1
 64 338 l 1
 135 429 l 2
 156 456 181 467 209 467 c 0
 310 467 460 330 676 324 c 1
 688 324 l 1
 677 224 l 1
 668 224 660 224 650 225 c 0
 342 223 167 45 167 -103 c 0
 167 -200 249 -280 419 -280 c 0
 487 -280 569 -267 666 -238 c 1
 702 -328 l 1
 590 -368 492 -385 410 -385 c 0
 182 -385 68 -253 68 -105 c 0
EndSplineSet
Colour: ffda6b
EndChar

StartChar: _.heh.fina
Encoding: 65545 -1 9
GlifName: _.heh.fina
Width: 752
VWidth: 1304
GlyphClass: 1
UnlinkRmOvrlpSave: 1
Flags: HMW
LayerCount: 2
Fore
SplineSet
68 -105 m 0
 68 45 181 208 406 282 c 1
 315 319 249 361 206 361 c 0
 192 361 181 357 172 347 c 2
 123 288 l 1
 64 338 l 1
 135 429 l 2
 156 456 181 467 209 467 c 0
 310 467 460 330 676 324 c 1
 688 324 l 1
 677 224 l 1
 668 224 659 224 650 225 c 0
 625 224 602 222 580 221 c 1
 591 182 l 1
 607 118 646 100 704 100 c 2
 752 100 l 1
 752 -0 l 1
 704 -0 l 2
 582 0 534 61 527 168 c 1
 527 213 l 1
 298 172 167 24 167 -103 c 0
 167 -200 249 -280 419 -280 c 0
 487 -280 569 -267 666 -238 c 1
 702 -328 l 1
 590 -368 492 -385 410 -385 c 0
 182 -385 68 -253 68 -105 c 0
EndSplineSet
Colour: ffda6b
EndChar

StartChar: _.heh.medi
Encoding: 65546 -1 10
GlifName: _.heh.medi
Width: 726
VWidth: 1304
GlyphClass: 1
UnlinkRmOvrlpSave: 1
Flags: HMW
LayerCount: 2
Fore
SplineSet
-50 50 m 0
 -50 76 -26 100 -1 100 c 2
 142 100 l 2
 280 100 341 167 435 221 c 1
 353 261 275 317 213 317 c 0
 186 317 162 306 142 280 c 2
 117 248 l 1
 58 299 l 1
 100 359 l 2
 131 403 167 420 206 420 c 0
 318 420 459 283 609 283 c 0
 611 283 613 283 615 283 c 2
 654 283 l 1
 664 284 672 284 682 284 c 1
 671 184 l 1
 632 184 l 1
 609 183 588 177 568 172 c 1
 585 115 625 100 678 100 c 2
 726 100 l 1
 726 -0 l 1
 679 -0 l 2
 565 0 514 54 503 150 c 1
 384 97 320 0 175 -0 c 2
 0 -0 l 2
 -25 0 -50 24 -50 50 c 0
EndSplineSet
Colour: ffda6b
EndChar

StartChar: _.heh.init
Encoding: 65547 -1 11
GlifName: _.heh.init
Width: 746
VWidth: 1304
GlyphClass: 1
UnlinkRmOvrlpSave: 1
Flags: HMW
LayerCount: 2
Fore
SplineSet
-50 50 m 0
 -50 76 -26 100 -1 100 c 2
 142 100 l 2
 284 100 345 172 442 226 c 1
 330 266 250 321 201 321 c 0
 187 321 176 316 167 306 c 2
 117 248 l 1
 58 299 l 1
 130 390 l 2
 151 417 175 427 203 427 c 0
 306 427 459 284 682 284 c 1
 671 184 l 1
 419 184 376 0 175 -0 c 2
 0 -0 l 2
 -25 0 -50 24 -50 50 c 0
EndSplineSet
Colour: ffda6b
EndChar

StartChar: _.sin.isol
Encoding: 65548 -1 12
GlifName: _.sin.isol
Width: 1395
VWidth: 1304
GlyphClass: 1
UnlinkRmOvrlpSave: 1
Flags: HMW
LayerCount: 2
Fore
SplineSet
64 -36 m 0
 64 28 101 114 172 226 c 1
 246 172 l 1
 191 80 162 9 162 -41 c 0
 162 -115 213 -152 314 -152 c 0
 400 -151 480 -141 555 -120 c 0
 615 -104 683 -66 683 -1 c 2
 683 11 l 2
 683 63 642 138 609 202 c 1
 688 247 l 1
 719 192 l 2
 752 130 797 100 851 100 c 0
 898 100 937 137 937 183 c 2
 937 320 l 1
 1038 320 l 1
 1038 183 l 2
 1038 128 1075 101 1129 101 c 0
 1175 101 1230 118 1230 171 c 0
 1230 218 1218 279 1193 354 c 1
 1182 395 l 1
 1284 413 l 1
 1316 310 1331 230 1331 172 c 0
 1331 114 1311 71 1273 43 c 0
 1234 13 1191 0 1144 -0 c 0
 1068 0 1015 21 984 64 c 1
 950 21 905 0 851 -0 c 0
 834 0 811 5 784 17 c 1
 784 -0 l 2
 784 -76 742 -137 657 -184 c 0
 572 -230 458 -253 314 -253 c 0
 148 -253 64 -180 64 -36 c 0
EndSplineSet
Colour: ffda6b
EndChar

StartChar: _.sin.fina
Encoding: 65549 -1 13
GlifName: _.sin.fina
Width: 1469
VWidth: 1304
GlyphClass: 1
UnlinkRmOvrlpSave: 1
Flags: HMW
LayerCount: 2
Fore
SplineSet
982 64 m 1
 959 32 909 -1 856 -1 c 0
 832 -1 807 5 785 17 c 1
 785 -61 757 -118 702 -159 c 0
 645 -198 585 -224 521 -235 c 0
 457 -246 395 -251 337 -251 c 0
 155 -251 64 -183 64 -49 c 0
 64 22 100 114 174 226 c 1
 247 173 l 1
 192 83 165 10 165 -48 c 0
 165 -116 222 -150 336 -150 c 0
 411 -150 485 -141 556 -120 c 0
 641 -95 683 -51 683 13 c 0
 683 68 643 140 609 203 c 1
 689 248 l 1
 705 218 732 169 750 146 c 0
 768 120 810 98 856 98 c 0
 906 98 936 138 936 186 c 2
 936 321 l 1
 1037 321 l 1
 1037 186 l 2
 1037 128 1086 100 1140 100 c 0
 1195 100 1232 134 1232 186 c 2
 1232 321 l 1
 1333 321 l 1
 1333 186 l 2
 1333 128 1360 100 1413 100 c 2
 1469 100 l 1
 1469 -0 l 1
 1413 -0 l 2
 1355 0 1312 22 1282 66 c 1
 1249 22 1196 0 1130 -0 c 0
 1062 0 1013 21 982 64 c 1
EndSplineSet
Colour: ffda6b
EndChar

StartChar: _.sin.medi
Encoding: 65550 -1 14
GlifName: _.sin.medi
Width: 1058
VWidth: 1304
GlyphClass: 1
UnlinkRmOvrlpSave: 1
Flags: HMW
LayerCount: 2
Fore
SplineSet
-50 48 m 0
 -50 74 -28 100 -2 100 c 2
 141 100 l 2
 185 100 244 135 244 182 c 2
 244 320 l 1
 344 320 l 1
 344 182 l 2
 344 126 387 100 431 100 c 0
 477 100 524 129 524 182 c 2
 524 300 l 1
 623 300 l 1
 623 182 l 2
 623 126 670 101 718 101 c 0
 770 101 824 130 824 182 c 2
 824 320 l 1
 924 320 l 1
 924 182 l 2
 924 127 949 100 1001 100 c 2
 1058 100 l 1
 1058 -0 l 1
 1001 -0 l 2
 938 0 893 22 866 66 c 1
 832 22 775 0 718 0 c 0
 662 0 607 22 575 65 c 1
 542 22 481 0 423 -0 c 0
 367 0 314 20 285 61 c 1
 255 19 193 0 141 -0 c 2
 -2 -0 l 1
 -26 1 -50 23 -50 48 c 0
EndSplineSet
Colour: ffda6b
EndChar

StartChar: _.sin.init
Encoding: 65551 -1 15
GlifName: _.sin.init
Width: 971
VWidth: 1304
GlyphClass: 1
UnlinkRmOvrlpSave: 1
Flags: HMW
LayerCount: 2
Fore
SplineSet
-50 50 m 0
 -50 73 -28 96 -6 100 c 1
 129 100 l 2
 175 100 223 136 223 182 c 2
 223 321 l 1
 327 321 l 1
 327 182 l 2
 327 126 370 100 413 100 c 0
 458 100 504 129 504 182 c 2
 504 321 l 1
 604 321 l 1
 604 182 l 2
 604 127 653 101 702 101 c 0
 753 101 804 128 804 184 c 0
 804 233 788 302 756 389 c 1
 854 421 l 1
 888 324 907 242 907 177 c 0
 907 54 807 -3 710 -3 c 0
 648 -3 588 20 554 65 c 1
 521 22 463 0 407 -0 c 0
 353 0 302 20 273 61 c 1
 243 19 181 0 129 -0 c 2
 -6 -0 l 1
 -29 4 -50 25 -50 50 c 0
EndSplineSet
Colour: ffda6b
EndChar

StartChar: _.sad.isol
Encoding: 65552 -1 16
GlifName: _.sad.isol
Width: 1474
VWidth: 1304
GlyphClass: 1
UnlinkRmOvrlpSave: 1
Flags: HMW
LayerCount: 2
Fore
SplineSet
64 -20 m 0
 64 43 94 121 154 216 c 1
 230 175 l 1
 186 105 164 39 164 -19 c 0
 164 -106 218 -150 324 -150 c 0
 456 -150 555 -130 624 -88 c 0
 662 -63 682 -33 682 4 c 0
 682 63 644 134 608 203 c 1
 688 248 l 1
 715 199 l 1
 749 133 788 100 826 100 c 1
 831 107 844 124 865 151 c 0
 887 179 913 212 944 246 c 0
 1047 365 1143 425 1230 425 c 0
 1340 425 1410 356 1410 245 c 0
 1410 188 1388 142 1349 104 c 0
 1274 35 1163 0 1018 -0 c 2
 859 -0 l 2
 826 0 800 6 784 18 c 1
 784 2 l 2
 784 -53 760 -102 716 -141 c 0
 630 -215 501 -251 326 -251 c 0
 151 -251 64 -174 64 -20 c 0
936 100 m 1
 1018 100 l 2
 1083 100 1139 108 1185 123 c 0
 1250 145 1309 173 1309 236 c 0
 1309 286 1273 324 1224 324 c 0
 1183 324 1136 301 1082 255 c 0
 1027 209 979 158 936 100 c 1
EndSplineSet
Colour: ffda6b
EndChar

StartChar: _.sad.fina
Encoding: 65553 -1 17
GlifName: _.sad.fina
Width: 1490
VWidth: 1304
GlyphClass: 1
UnlinkRmOvrlpSave: 1
Flags: HMW
LayerCount: 2
Fore
SplineSet
1222 425 m 0
 1338 425 1411 357 1411 246 c 0
 1411 192 1391 146 1354 107 c 1
 1381 102 1410 100 1439 100 c 0
 1456 100 1473 101 1490 101 c 1
 1490 1 l 1
 1432 1 l 2
 1359 1 1294 13 1236 36 c 1
 1181 13 1108 1 1019 1 c 2
 869 1 l 2
 827 1 799 6 784 18 c 1
 784 -0 l 2
 784 -91 714 -157 634 -191 c 0
 542 -230 438 -251 321 -251 c 0
 149 -251 64 -174 64 -20 c 0
 64 44 94 123 154 218 c 1
 230 176 l 1
 187 105 165 37 165 -26 c 0
 165 -108 218 -150 325 -150 c 0
 426 -150 511 -137 580 -111 c 0
 648 -84 682 -47 682 1 c 0
 682 39 667 90 635 150 c 1
 608 203 l 1
 688 248 l 1
 715 196 l 1
 749 132 786 101 827 101 c 1
 916 218 989 299 1043 345 c 0
 1082 377 1156 425 1222 425 c 0
1310 235 m 0
 1310 285 1272 324 1222 324 c 0
 1183 324 1135 300 1081 252 c 0
 1026 204 977 154 934 101 c 1
 1019 101 l 2
 1074 101 1126 107 1173 119 c 0
 1264 144 1310 182 1310 235 c 0
EndSplineSet
Colour: ffda6b
EndChar

StartChar: _.sad.medi
Encoding: 65554 -1 18
GlifName: _.sad.medi
Width: 1031
VWidth: 1304
GlyphClass: 1
UnlinkRmOvrlpSave: 1
Flags: HMW
LayerCount: 2
Fore
SplineSet
-50 50 m 0
 -49 75 -27 99 -2 100 c 1
 104 100 l 2
 146 100 191 141 191 182 c 2
 191 264 l 1
 296 264 l 1
 296 178 l 2
 296 134 321 100 367 100 c 1
 475 211 629 420 769 420 c 0
 892 420 950 339 950 251 c 0
 950 200 931 148 893 107 c 1
 925 100 963 99 1000 99 c 0
 1010 99 1021 100 1031 100 c 1
 1031 -0 l 1
 967 -0 l 2
 896 0 832 12 775 34 c 1
 720 12 646 0 556 -0 c 2
 381 -0 l 2
 327 0 270 22 239 66 c 1
 209 22 164 0 104 -0 c 2
 0 -0 l 1
 -25 2 -50 24 -50 50 c 0
473 100 m 1
 556 100 l 2
 757 100 851 185 851 250 c 0
 851 289 817 320 751 320 c 0
 667 320 523 164 473 100 c 1
EndSplineSet
Colour: ffda6b
EndChar

StartChar: _.sad.init
Encoding: 65555 -1 19
GlifName: _.sad.init
Width: 1012
VWidth: 1304
GlyphClass: 1
UnlinkRmOvrlpSave: 1
Flags: HMW
LayerCount: 2
Fore
SplineSet
-50 50 m 0
 -50 75 -26 99 -3 100 c 1
 106 100 l 2
 150 100 191 145 191 186 c 2
 191 264 l 1
 295 264 l 1
 295 182 l 2
 295 135 319 100 367 100 c 1
 483 254 577 351 652 393 c 0
 691 415 724 423 761 423 c 0
 874 423 948 360 948 246 c 0
 948 191 929 144 891 106 c 0
 818 36 707 0 558 -0 c 2
 383 -0 l 2
 319 0 270 22 239 66 c 1
 207 22 163 0 106 -0 c 2
 -3 -0 l 1
 -26 2 -50 24 -50 50 c 0
847 230 m 0
 847 285 812 322 761 322 c 0
 691 322 595 249 474 100 c 1
 558 100 l 2
 660 100 740 118 799 156 c 0
 831 177 847 202 847 230 c 0
EndSplineSet
Colour: ffda6b
EndChar

StartChar: _.ta.isol
Encoding: 65556 -1 20
GlifName: _.ta.isol
Width: 830
VWidth: 1304
GlyphClass: 1
UnlinkRmOvrlpSave: 1
Flags: HMW
LayerCount: 2
Fore
SplineSet
565 422 m 0
 684 422 766 361 766 245 c 0
 766 188 746 142 708 104 c 0
 635 34 524 -1 375 -1 c 2
 182 -1 l 2
 151 -1 112 6 64 20 c 1
 86 109 l 1
 122 102 152 98 174 98 c 2
 185 98 l 1
 185 779 l 1
 287 795 l 1
 287 229 l 1
 355 309 412 363 460 390 c 0
 496 411 532 422 565 422 c 0
665 242 m 0
 665 291 627 321 579 321 c 0
 509 321 413 247 292 98 c 1
 375 98 l 2
 473 98 587 121 638 176 c 0
 656 196 665 217 665 242 c 0
EndSplineSet
Colour: ffda6b
EndChar

StartChar: _.ta.fina
Encoding: 65557 -1 21
GlifName: _.ta.fina
Width: 859
VWidth: 1304
GlyphClass: 1
UnlinkRmOvrlpSave: 1
Flags: HMW
LayerCount: 2
Fore
SplineSet
64 33 m 1
 96 111 l 1
 124 104 151 101 183 101 c 1
 183 782 l 1
 287 798 l 1
 287 215 l 1
 310 242 336 270 364 300 c 0
 422 358 508 425 586 425 c 0
 636 425 682 409 720 378 c 0
 757 346 777 303 777 246 c 0
 777 191 757 144 720 107 c 1
 747 102 777 100 807 100 c 0
 824 100 842 101 859 101 c 1
 859 1 l 1
 794 1 l 2
 723 1 659 13 602 36 c 1
 547 13 474 1 383 1 c 2
 187 1 l 2
 140 1 100 11 64 33 c 1
676 242 m 0
 676 293 637 324 580 324 c 0
 546 324 501 300 447 252 c 0
 392 204 343 154 300 101 c 1
 383 101 l 2
 457 101 527 113 592 138 c 0
 630 153 676 193 676 242 c 0
EndSplineSet
Colour: ffda6b
EndChar

StartChar: _.ta.medi
Encoding: 65558 -1 22
GlifName: _.ta.medi
Width: 795
VWidth: 1304
GlyphClass: 1
UnlinkRmOvrlpSave: 1
Flags: HMW
LayerCount: 2
Fore
SplineSet
521 422 m 0
 626 422 712 352 712 245 c 0
 712 190 693 142 655 104 c 1
 677 100 703 98 733 98 c 2
 795 98 l 1
 795 -1 l 1
 729 -1 l 2
 658 -1 594 10 537 33 c 1
 482 10 409 -1 318 -1 c 2
 -1 -1 l 1
 -26 0 -50 24 -50 50 c 0
 -49 76 -25 98 0 98 c 2
 130 98 l 1
 135 785 l 1
 237 801 l 1
 237 231 l 1
 257 253 277 276 298 298 c 0
 335 336 374 366 413 388 c 0
 452 411 488 422 521 422 c 0
611 239 m 0
 611 292 574 321 515 321 c 0
 481 321 436 298 381 250 c 0
 328 203 280 151 237 98 c 1
 318 98 l 2
 392 98 462 110 527 135 c 0
 564 151 611 189 611 239 c 0
EndSplineSet
Colour: ffda6b
EndChar

StartChar: _.ta.init
Encoding: 65559 -1 23
GlifName: _.ta.init
Width: 776
VWidth: 1304
GlyphClass: 1
UnlinkRmOvrlpSave: 1
Flags: HMW
LayerCount: 2
Fore
SplineSet
510 423 m 0
 630 423 712 364 712 246 c 0
 712 191 692 144 654 106 c 0
 581 36 471 0 322 -0 c 2
 0 -0 l 2
 -25 0 -50 24 -50 50 c 0
 -49 76 -25 100 0 100 c 2
 131 100 l 1
 131 780 l 1
 233 796 l 1
 233 231 l 1
 315 328 412 423 510 423 c 0
238 100 m 1
 322 100 l 2
 390 100 452 111 511 133 c 0
 563 151 611 189 611 244 c 0
 611 296 571 322 525 322 c 0
 455 322 359 249 238 100 c 1
EndSplineSet
Colour: ffda6b
EndChar

StartChar: _.ein.isol
Encoding: 65560 -1 24
GlifName: _.ein.isol
Width: 760
VWidth: 1304
GlyphClass: 1
UnlinkRmOvrlpSave: 1
Flags: HMW
LayerCount: 2
Fore
SplineSet
420 -434 m 0
 227 -434 64 -327 64 -139 c 0
 64 -50 93 24 151 86 c 0
 174 111 199 133 225 151 c 1
 172 178 139 209 112 262 c 0
 101 287 95 313 95 340 c 0
 95 398 116 446 158 487 c 0
 200 526 243 546 287 546 c 0
 346 546 399 536 463 506 c 1
 430 418 l 1
 378 436 338 445 311 445 c 0
 256 445 196 387 196 333 c 0
 196 305 210 280 238 262 c 0
 261 244 293 228 335 211 c 1
 506 267 l 1
 538 175 l 1
 379 119 l 2
 277 84 165 -9 165 -138 c 0
 165 -273 279 -333 425 -333 c 0
 484 -333 574 -314 628 -296 c 1
 664 -282 l 1
 696 -362 l 1
 620 -400 505 -434 420 -434 c 0
EndSplineSet
Colour: ffda6b
EndChar

StartChar: _.ein.fina
Encoding: 65561 -1 25
GlifName: _.ein.fina
Width: 728
VWidth: 1304
GlyphClass: 1
UnlinkRmOvrlpSave: 1
Flags: HMW
LayerCount: 2
Fore
SplineSet
165 -110 m 0
 165 -262 266 -333 421 -333 c 0
 502 -333 592 -314 692 -278 c 1
 728 -368 l 1
 615 -411 508 -434 410 -434 c 0
 312 -434 228 -405 162 -351 c 0
 97 -296 64 -220 64 -120 c 0
 64 -78 73 -38 90 -0 c 0
 122 69 178 126 254 170 c 0
 291 191 325 208 356 218 c 1
 419 241 l 1
 419 242 417 244 417 245 c 0
 407 283 366 301 292 301 c 1
 276 391 l 1
 355 423 416 439 459 439 c 0
 537 439 607 407 607 333 c 0
 607 279 577 231 515 189 c 1
 530 147 548 123 570 113 c 0
 592 103 646 100 728 100 c 1
 728 -0 l 1
 621 0 548 14 511 42 c 0
 486 62 465 96 447 145 c 1
 379 119 l 1
 317 97 267 65 226 24 c 0
 185 -17 165 -61 165 -110 c 0
EndSplineSet
Colour: ffda6b
EndChar

StartChar: _.ein.medi
Encoding: 65562 -1 26
GlifName: _.ein.medi
Width: 504
VWidth: 1304
GlyphClass: 1
UnlinkRmOvrlpSave: 1
Flags: HMW
LayerCount: 2
Fore
SplineSet
226 156 m 1
 223 216 168 244 98 244 c 1
 83 335 l 1
 162 366 222 381 265 381 c 0
 338 381 413 355 413 276 c 0
 413 228 390 186 343 150 c 1
 381 102 447 100 504 100 c 1
 504 -0 l 1
 410 0 333 16 281 86 c 1
 223 28 153 0 71 -0 c 2
 -2 -0 l 1
 -27 1 -50 24 -50 50 c 0
 -49 75 -27 99 -2 100 c 1
 69 100 l 2
 128 100 180 118 226 156 c 1
EndSplineSet
Colour: ffda6b
EndChar

StartChar: _.ein.init
Encoding: 65563 -1 27
GlifName: _.ein.init
Width: 598
VWidth: 1304
GlyphClass: 1
UnlinkRmOvrlpSave: 1
Flags: HMW
LayerCount: 2
Fore
SplineSet
314 370 m 0
 260 370 199 311 199 257 c 0
 199 192 272 163 328 140 c 1
 435 166 495 180 510 184 c 1
 534 97 l 1
 452 65 344 36 212 10 c 0
 169 4 125 0 82 -0 c 2
 -2 -0 l 1
 -27 1 -50 24 -50 50 c 0
 -50 76 -26 100 -1 100 c 0
 14 100 30 99 45 99 c 0
 91 99 137 100 181 106 c 1
 139 138 99 190 99 264 c 0
 99 322 120 372 162 411 c 0
 204 452 247 471 290 471 c 0
 334 471 383 459 436 434 c 1
 461 422 l 1
 434 343 l 1
 381 361 341 370 314 370 c 0
EndSplineSet
Colour: ffda6b
EndChar

StartChar: _.feh.isol
Encoding: 65564 -1 28
GlifName: _.feh.isol
Width: 1149
VWidth: 1304
GlyphClass: 1
UnlinkRmOvrlpSave: 1
Flags: HMW
LayerCount: 2
Fore
SplineSet
64 216 m 0
 64 271 91 345 144 439 c 1
 231 399 l 1
 187 315 165 251 165 208 c 0
 165 134 262 97 458 97 c 0
 814 97 991 137 991 213 c 1
 953 204 915 197 879 197 c 0
 842 197 805 204 768 225 c 0
 734 245 718 278 718 325 c 0
 718 409 790 539 884 539 c 0
 1046 539 1085 359 1085 230 c 0
 1085 75 876 -3 459 -3 c 0
 196 -3 64 70 64 216 c 0
796 321 m 0
 796 302 825 297 859 297 c 0
 909 297 973 308 989 312 c 1
 989 391 935 437 884 437 c 0
 839 437 796 401 796 321 c 0
EndSplineSet
Colour: ffda6b
EndChar

StartChar: _.feh.fina
Encoding: 65565 -1 29
GlifName: _.feh.fina
Width: 1129
VWidth: 1304
GlyphClass: 1
UnlinkRmOvrlpSave: 1
Flags: HMW
LayerCount: 2
Fore
SplineSet
64 215 m 0
 64 268 91 344 145 442 c 1
 233 400 l 1
 187 315 165 252 165 209 c 0
 165 136 252 100 426 100 c 0
 526 100 649 120 795 162 c 1
 762 199 748 239 748 287 c 0
 748 334 763 375 793 411 c 0
 839 466 880 491 929 491 c 0
 959 491 986 480 1009 458 c 0
 1052 416 1075 364 1075 300 c 0
 1075 236 1044 184 985 146 c 1
 1012 128 1060 119 1129 119 c 1
 1129 18 l 1
 1045 18 964 40 886 82 c 1
 757 27 608 -1 439 -1 c 0
 189 -1 64 71 64 215 c 0
913 389 m 0
 875 389 833 323 833 283 c 0
 833 249 853 219 890 192 c 1
 946 225 977 259 977 300 c 0
 977 318 971 337 959 358 c 0
 947 379 930 389 913 389 c 0
EndSplineSet
Colour: ffda6b
EndChar

StartChar: _.feh.medi
Encoding: 65566 -1 30
GlifName: _.feh.medi
Width: 505
VWidth: 1304
GlyphClass: 1
UnlinkRmOvrlpSave: 1
Flags: HMW
LayerCount: 2
Fore
SplineSet
-50 48 m 0
 -50 74 -27 100 -2 100 c 0
 12 100 25 99 38 99 c 0
 81 99 121 101 169 113 c 1
 136 149 119 195 119 250 c 0
 119 328 206 437 287 437 c 0
 371 437 428 325 428 251 c 0
 428 208 405 164 358 116 c 1
 397 106 446 100 505 100 c 1
 505 -0 l 1
 414 0 333 16 260 48 c 1
 198 16 132 0 62 -0 c 2
 -2 -0 l 1
 -26 1 -50 23 -50 48 c 0
199 250 m 0
 199 217 222 185 268 155 c 1
 320 189 345 220 345 250 c 0
 345 281 320 337 284 337 c 0
 251 337 199 283 199 250 c 0
EndSplineSet
Colour: ffda6b
EndChar

StartChar: _.feh.init
Encoding: 65567 -1 31
GlifName: _.feh.init
Width: 525
VWidth: 1304
GlyphClass: 1
UnlinkRmOvrlpSave: 1
Flags: HMW
LayerCount: 2
Fore
SplineSet
237 179 m 0
 139 179 97 247 97 326 c 0
 97 418 156 519 248 519 c 0
 387 519 461 360 461 239 c 0
 461 80 330 0 68 -0 c 2
 0 -0 l 2
 -25 0 -50 24 -50 50 c 0
 -49 75 -26 100 -1 100 c 2
 68 100 l 2
 261 100 357 132 357 197 c 1
 311 186 271 179 237 179 c 0
177 333 m 0
 177 299 198 279 244 279 c 0
 286 279 338 290 359 298 c 1
 359 357 296 419 244 420 c 0
 207 420 177 373 177 333 c 0
EndSplineSet
Colour: ffda6b
EndChar

StartChar: _.qaf.isol
Encoding: 65568 -1 32
GlifName: _.qaf.isol
Width: 859
VWidth: 1304
GlyphClass: 1
UnlinkRmOvrlpSave: 1
Flags: HMW
LayerCount: 2
Fore
SplineSet
64 -158 m 0
 64 -100 100 -11 170 106 c 1
 249 52 l 1
 192 -45 164 -113 164 -147 c 0
 164 -229 213 -271 313 -271 c 0
 568 -271 694 -217 694 -110 c 2
 694 -29 l 1
 650 -39 609 -43 572 -43 c 0
 535 -43 499 -34 465 -14 c 0
 426 7 413 44 413 84 c 0
 413 159 444 216 484 260 c 0
 509 286 537 299 569 299 c 0
 621 299 663 283 699 250 c 0
 763 188 795 94 795 -38 c 2
 795 -116 l 2
 795 -280 643 -365 339 -372 c 1
 156 -372 64 -301 64 -158 c 0
681 74 m 1
 681 135 630 199 569 199 c 0
 526 199 513 114 513 81 c 0
 513 56 575 53 598 53 c 0
 631 53 651 60 681 74 c 1
EndSplineSet
Colour: ffda6b
EndChar

StartChar: _.qaf.fina
Encoding: 65569 -1 33
GlifName: _.qaf.fina
Width: 869
VWidth: 1304
GlyphClass: 1
UnlinkRmOvrlpSave: 1
Flags: HMW
LayerCount: 2
Fore
SplineSet
64 -38 m 0
 64 20 100 108 170 225 c 1
 247 172 l 1
 192 74 164 7 164 -27 c 0
 164 -109 213 -152 313 -152 c 0
 568 -152 694 -97 694 10 c 2
 694 91 l 1
 650 81 608 76 572 76 c 0
 535 76 499 86 465 106 c 0
 426 127 413 163 413 203 c 0
 413 278 444 335 484 379 c 0
 509 405 537 418 569 418 c 0
 621 418 663 402 699 369 c 0
 756 314 788 231 794 119 c 1
 820 105 844 98 869 98 c 1
 869 -3 l 1
 842 -3 817 0 795 7 c 1
 795 4 l 2
 795 -160 642 -246 337 -253 c 1
 155 -253 64 -181 64 -38 c 0
681 193 m 1
 681 254 630 319 569 319 c 0
 526 319 513 233 513 200 c 0
 513 177 575 172 598 172 c 0
 631 172 651 181 681 193 c 1
EndSplineSet
Colour: ffda6b
EndChar

StartChar: _.kaf.isol.fa
Encoding: 65570 -1 34
GlifName: _.kaf.isol.fa
Width: 1095
VWidth: 1304
GlyphClass: 1
UnlinkRmOvrlpSave: 1
Flags: HMW
LayerCount: 2
Fore
SplineSet
877 214 m 0
 877 2 542 -4 383 -4 c 0
 211 -4 64 39 64 202 c 0
 64 262 84 339 131 436 c 1
 207 395 l 1
 168 324 152 269 152 227 c 0
 152 126 249 99 372 99 c 0
 376 99 380 100 384 100 c 0
 386 100 388 100 390 100 c 0
 485 100 795 101 795 219 c 0
 795 279 716 354 557 445 c 1
 570 580 l 1
 741 699 887 779 1004 818 c 1
 1031 724 l 1
 912 680 779 609 635 509 c 1
 796 414 877 316 877 214 c 0
EndSplineSet
Colour: ffda6b
EndChar

StartChar: _.kaf.isol.ar
Encoding: 65571 -1 35
GlifName: _.kaf.isol.ar
Width: 929
VWidth: 1304
GlyphClass: 1
UnlinkRmOvrlpSave: 1
Flags: HMW
LayerCount: 2
Fore
SplineSet
64 217 m 0
 64 267 76 327 102 400 c 0
 104 406 113 409 118 407 c 2
 153 393 l 2
 158 391 163 384 159 373 c 0
 142 328 135 289 135 256 c 0
 135 138 238 100 369 100 c 0
 371 100 372 100 374 100 c 0
 540 100 682 134 792 172 c 1
 776 700 l 2
 776 707 776 713 776 718 c 0
 776 752 784 762 853 800 c 0
 860 800 865 798 865 789 c 2
 865 200 l 2
 865 121 853 99 753 65 c 0
 647 31 546 -1 358 -1 c 0
 199 -1 64 47 64 217 c 0
EndSplineSet
Colour: ffda6b
EndChar

StartChar: _.kaf.fina.fa
Encoding: 65572 -1 36
GlifName: _.kaf.fina.fa
Width: 1120
VWidth: 1304
GlyphClass: 1
UnlinkRmOvrlpSave: 1
Flags: HMW
LayerCount: 2
Fore
SplineSet
460 -5 m 0
 259 -5 64 18 64 203 c 0
 64 262 84 339 131 436 c 1
 207 395 l 1
 168 324 152 269 152 227 c 0
 152 126 249 99 372 99 c 0
 376 99 380 100 384 100 c 0
 444 100 504 100 564 100 c 1
 623 102 678 109 724 124 c 0
 754 134 794 155 794 192 c 0
 794 243 769 279 740 308 c 0
 724 324 704 340 681 356 c 1
 642 380 l 1
 631 386 567 419 557 426 c 1
 569 559 l 1
 741 678 885 759 1002 798 c 1
 1006 798 l 1
 1033 703 l 1
 914 660 783 588 639 490 c 1
 752 422 873 329 943 247 c 0
 952 236 962 220 976 199 c 2
 1010 149 l 2
 1029 123 1072 100 1120 100 c 1
 1120 -1 l 1
 1068 -1 1028 11 996 37 c 0
 964 63 937 97 914 143 c 0
 902 165 889 182 877 193 c 1
 877 120 834 74 772 44 c 0
 699 5 574 -5 460 -5 c 0
EndSplineSet
Colour: ffda6b
EndChar

StartChar: _.kaf.fina.ar
Encoding: 65573 -1 37
GlifName: _.kaf.fina.ar
Width: 885
VWidth: 1304
GlyphClass: 1
UnlinkRmOvrlpSave: 1
Flags: HMW
LayerCount: 2
Fore
SplineSet
64 28 m 1
 96 117 l 1
 146 95 219 82 315 82 c 0
 410 82 496 87 574 97 c 0
 627 104 652 141 652 209 c 2
 652 761 l 1
 734 761 l 1
 734 246 l 2
 734 175 747 123 799 109 c 0
 824 102 852 98 885 98 c 1
 885 -3 l 1
 811 -3 760 10 728 36 c 0
 723 40 714 48 700 64 c 1
 679 31 650 12 613 7 c 0
 516 -9 416 -17 311 -17 c 0
 208 -17 126 -2 64 28 c 1
EndSplineSet
Colour: ffda6b
EndChar

StartChar: _.kaf.medi
Encoding: 65574 -1 38
GlifName: _.kaf.medi
Width: 634
VWidth: 1304
GlyphClass: 1
UnlinkRmOvrlpSave: 1
Flags: HMW
LayerCount: 2
Fore
SplineSet
-50 50 m 0
 -50 76 -26 100 0 100 c 2
 64 100 l 2
 132 100 190 107 238 124 c 0
 285 140 308 164 308 192 c 0
 308 229 297 259 275 284 c 0
 237 329 197 354 156 380 c 0
 145 386 81 419 71 426 c 1
 83 559 l 1
 255 678 399 759 516 798 c 1
 543 703 l 1
 425 660 293 588 149 490 c 1
 288 408 392 326 457 247 c 0
 473 227 509 170 524 149 c 0
 543 123 586 100 634 100 c 1
 634 -1 l 1
 584 -1 542 11 510 37 c 0
 478 63 451 97 428 143 c 0
 416 166 401 183 389 194 c 1
 389 152 375 117 344 86 c 0
 286 29 194 0 67 -0 c 2
 -1 -0 l 1
 -26 1 -50 24 -50 50 c 0
EndSplineSet
Colour: ffda6b
EndChar

StartChar: _.kaf.init
Encoding: 65575 -1 39
GlifName: _.kaf.init
Width: 561
VWidth: 1304
GlyphClass: 1
UnlinkRmOvrlpSave: 1
Flags: HMW
LayerCount: 2
Fore
SplineSet
-50 50 m 0
 -49 76 -25 100 0 100 c 2
 93 100 l 2
 213 100 264 127 264 173 c 0
 264 234 171 328 23 425 c 1
 36 557 l 1
 207 678 353 757 470 798 c 1
 497 702 l 1
 378 659 240 592 96 492 c 1
 265 381 345 264 345 171 c 0
 345 71 251 0 74 -0 c 2
 0 -0 l 1
 -25 1 -50 24 -50 50 c 0
EndSplineSet
Colour: ffda6b
EndChar

StartChar: _.kaf_hamze.isol.ar
Encoding: 65576 -1 40
GlifName: _.kaf_hamze.isol.ar
Width: 336
VWidth: 1304
GlyphClass: 1
UnlinkRmOvrlpSave: 1
Flags: HMW
LayerCount: 2
Fore
SplineSet
64 274 m 1
 64 343 l 1
 108 343 144 348 171 358 c 0
 197 367 210 376 210 385 c 0
 210 387 141 423 139 425 c 0
 121 435 102 463 102 493 c 0
 102 519 119 545 153 571 c 0
 186 597 225 610 272 610 c 1
 272 543 l 1
 224 543 189 531 166 509 c 0
 161 504 159 498 159 493 c 0
 159 487 167 480 183 473 c 0
 220 455 267 435 267 386 c 0
 267 363 251 341 218 319 c 0
 185 297 144 283 95 278 c 0
 78 276 68 274 64 274 c 1
EndSplineSet
Colour: ffda6b
EndChar

StartChar: _.ghaf.isol
Encoding: 65577 -1 41
GlifName: _.ghaf.isol
Width: 1095
VWidth: 0
GlyphClass: 1
UnlinkRmOvrlpSave: 1
Flags: HMW
LayerCount: 2
Fore
SplineSet
877 214 m 0
 877 2 542 -4 383 -4 c 0
 211 -4 64 39 64 202 c 0
 64 262 84 339 131 436 c 1
 207 395 l 1
 168 324 152 269 152 227 c 0
 152 126 249 99 372 99 c 0
 376 99 380 100 384 100 c 0
 386 100 388 100 390 100 c 0
 485 100 795 101 795 219 c 0
 795 279 716 354 557 445 c 1
 570 580 l 1
 741 699 887 779 1004 818 c 1
 1031 724 l 1
 912 680 779 609 635 509 c 1
 796 414 877 316 877 214 c 0
514 718 m 1
 600 773 728 845 899 935 c 1
 925 874 l 1
 777 801 651 728 546 658 c 1
 514 718 l 1
EndSplineSet
Colour: ffda6b
EndChar

StartChar: _.ghaf.fina
Encoding: 65578 -1 42
GlifName: _.ghaf.fina
Width: 1120
VWidth: 0
GlyphClass: 1
Flags: HMW
LayerCount: 2
Fore
SplineSet
460 -5 m 0
 259 -5 64 18 64 203 c 0
 64 262 84 339 131 436 c 1
 207 395 l 1
 168 324 152 269 152 227 c 0
 152 126 249 99 372 99 c 0
 376 99 380 100 384 100 c 0
 444 100 504 100 564 100 c 1
 608 101 653 105 691 114 c 0
 730 124 794 145 794 191 c 0
 794 244 772 274 740 308 c 0
 699 349 649 377 595 405 c 0
 574 416 562 422 557 426 c 1
 569 559 l 1
 741 678 885 759 1002 798 c 1
 1006 798 l 1
 1033 703 l 1
 914 660 783 588 639 490 c 1
 752 422 873 329 943 247 c 0
 959 229 992 175 1010 149 c 0
 1029 123 1072 100 1120 100 c 1
 1120 -1 l 1
 1068 -1 1028 11 996 37 c 0
 964 63 937 97 914 143 c 0
 902 165 889 182 877 193 c 1
 877 120 834 74 772 44 c 0
 699 5 574 -5 460 -5 c 0
535 688 m 1
 621 745 749 817 919 906 c 1
 944 844 l 1
 798 771 671 699 565 629 c 1
 535 688 l 1
EndSplineSet
Colour: ffda6b
EndChar

StartChar: _.lam.isol
Encoding: 65580 -1 44
GlifName: _.lam.isol
Width: 848
VWidth: 1304
GlyphClass: 1
UnlinkRmOvrlpSave: 1
Flags: HMW
LayerCount: 2
Fore
SplineSet
64 -33 m 0
 64 33 83 115 127 212 c 1
 210 170 l 1
 174 93 160 31 160 -18 c 0
 160 -138 251 -181 358 -181 c 0
 508 -181 688 -95 692 -15 c 1
 682 783 l 1
 784 799 l 1
 784 -0 l 1
 774 -165 549 -283 353 -283 c 0
 199 -283 64 -211 64 -33 c 0
EndSplineSet
Colour: ffda6b
EndChar

StartChar: _.lam.fina
Encoding: 65581 -1 45
GlifName: _.lam.fina
Width: 916
VWidth: 1304
GlyphClass: 1
UnlinkRmOvrlpSave: 1
Flags: HMW
LayerCount: 2
Fore
SplineSet
64 -33 m 0
 64 33 83 115 127 212 c 1
 210 170 l 1
 174 93 160 31 160 -18 c 0
 160 -138 251 -181 358 -181 c 0
 508 -181 688 -95 692 -15 c 1
 682 783 l 1
 784 799 l 1
 784 182 l 1
 785 103 851 100 916 100 c 1
 916 -0 l 1
 861 0 816 7 784 22 c 1
 784 -0 l 1
 774 -165 549 -283 353 -283 c 0
 199 -283 64 -211 64 -33 c 0
EndSplineSet
Colour: ffda6b
EndChar

StartChar: _.lam.medi
Encoding: 65582 -1 46
GlifName: _.lam.medi
Width: 403
VWidth: 1304
GlyphClass: 1
UnlinkRmOvrlpSave: 1
Flags: HMW
LayerCount: 2
Fore
SplineSet
-50 50 m 0
 -50 76 -26 100 0 100 c 2
 53 100 l 2
 110 100 172 116 172 184 c 2
 172 780 l 1
 271 800 l 1
 271 184 l 2
 271 103 338 100 403 100 c 1
 403 -0 l 1
 314 0 256 18 226 55 c 1
 189 18 131 0 53 -0 c 2
 0 -0 l 1
 -25 1 -50 24 -50 50 c 0
EndSplineSet
Colour: ffda6b
EndChar

StartChar: _.lam.init
Encoding: 65583 -1 47
GlifName: _.lam.init
Width: 376
VWidth: 1304
GlyphClass: 1
UnlinkRmOvrlpSave: 1
Flags: HMW
LayerCount: 2
Fore
SplineSet
-50 50 m 0
 -49 76 -26 100 -1 100 c 2
 99 100 l 2
 175 100 212 127 212 184 c 2
 212 766 l 1
 312 785 l 1
 312 170 l 2
 312 57 244 0 110 -0 c 2
 -1 -0 l 2
 -26 0 -50 24 -50 50 c 0
EndSplineSet
Colour: ffda6b
EndChar

StartChar: _.mim.isol
Encoding: 65584 -1 48
GlifName: _.mim.isol
Width: 693
VWidth: 1304
GlyphClass: 1
UnlinkRmOvrlpSave: 1
Flags: HMW
LayerCount: 2
Fore
SplineSet
273 332 m 0
 273 425 330 513 421 513 c 0
 480 513 530 490 569 442 c 0
 610 394 629 339 629 276 c 0
 629 259 628 243 624 231 c 1
 586 138 l 1
 556 151 l 1
 499 179 422 193 324 193 c 0
 266 192 224 183 198 168 c 0
 170 152 156 117 156 63 c 0
 156 -45 171 -197 201 -393 c 1
 111 -406 l 1
 79 -219 64 -64 64 59 c 0
 64 205 129 275 261 288 c 0
 266 289 272 289 278 290 c 1
 274 304 273 318 273 332 c 0
430 412 m 0
 386 412 373 379 373 337 c 0
 373 323 375 309 380 293 c 1
 416 291 456 284 499 274 c 2
 534 266 l 1
 539 276 542 285 542 296 c 0
 542 326 528 354 502 377 c 0
 476 402 452 412 430 412 c 0
EndSplineSet
Colour: ffda6b
EndChar

StartChar: _.mim.fina
Encoding: 65585 -1 49
GlifName: _.mim.fina
Width: 767
VWidth: 1304
GlyphClass: 1
UnlinkRmOvrlpSave: 1
Flags: HMW
LayerCount: 2
Fore
SplineSet
651 18 m 1
 628 -31 564 -84 495 -84 c 0
 462 -84 431 -66 403 -32 c 0
 375 2 361 45 361 97 c 0
 361 150 374 202 400 252 c 1
 377 254 351 256 324 256 c 0
 266 256 224 247 197 231 c 0
 170 215 156 179 156 125 c 0
 156 17 171 -134 201 -329 c 1
 111 -344 l 1
 80 -157 64 -1 64 122 c 0
 64 294 147 356 327 356 c 0
 364 356 390 354 405 353 c 1
 380 399 l 1
 449 450 l 1
 600 196 l 2
 637 132 680 100 729 100 c 2
 767 100 l 1
 767 -0 l 1
 729 -0 l 2
 703 0 677 6 651 18 c 1
441 85 m 0
 441 52 468 16 500 16 c 0
 539 16 566 34 582 71 c 1
 564 92 543 121 522 157 c 0
 500 194 487 215 483 221 c 1
 455 175 441 131 441 85 c 0
EndSplineSet
Colour: ffda6b
EndChar

StartChar: _.mim.medi
Encoding: 65586 -1 50
GlifName: _.mim.medi
Width: 708
VWidth: 1304
GlyphClass: 1
UnlinkRmOvrlpSave: 1
Flags: HMW
LayerCount: 2
Fore
SplineSet
-50 50 m 0
 -50 76 -26 100 0 100 c 2
 34 100 l 2
 102 100 156 127 195 182 c 2
 234 236 l 1
 266 276 310 332 381 332 c 0
 439 332 484 294 516 216 c 1
 541 179 567 151 594 130 c 0
 622 109 660 100 708 100 c 1
 708 -0 l 1
 629 0 571 18 530 56 c 1
 515 2 480 -25 426 -25 c 0
 351 -25 282 7 217 71 c 1
 163 23 103 0 34 -0 c 2
 -2 -0 l 1
 -27 1 -50 24 -50 50 c 0
455 117 m 0
 455 165 425 232 381 232 c 0
 345 232 317 195 295 165 c 0
 284 150 277 141 275 139 c 0
 314 96 364 75 426 75 c 0
 446 75 455 89 455 117 c 0
EndSplineSet
Colour: ffda6b
EndChar

StartChar: _.mim.init
Encoding: 65587 -1 51
GlifName: _.mim.init
Width: 600
VWidth: 1304
GlyphClass: 1
UnlinkRmOvrlpSave: 1
Flags: HMW
LayerCount: 2
Fore
SplineSet
-50 49 m 0
 -50 75 -27 99 -3 100 c 1
 33 100 l 2
 101 100 155 127 194 182 c 0
 196 184 202 193 212 207 c 2
 233 236 l 1
 255 263 283 293 311 312 c 0
 331 326 353 332 376 332 c 2
 380 332 l 2
 422 332 458 310 489 264 c 0
 521 217 536 169 536 119 c 0
 536 23 499 -25 425 -25 c 0
 350 -25 281 7 217 71 c 1
 163 24 102 0 33 -0 c 2
 -1 -0 l 2
 -25 0 -50 24 -50 49 c 0
454 117 m 0
 454 165 426 232 380 232 c 0
 330 232 302 168 274 140 c 1
 315 97 364 75 426 75 c 0
 444 75 454 89 454 117 c 0
EndSplineSet
Colour: ffda6b
EndChar

StartChar: _.nun.isol
Encoding: 65588 -1 52
GlifName: _.nun.isol
Width: 855
VWidth: 1305
GlyphClass: 1
UnlinkRmOvrlpSave: 1
Flags: HMW
LayerCount: 2
Fore
SplineSet
678 289 m 1
 753 158 791 68 791 -5 c 0
 791 -156 560 -259 358 -259 c 0
 202 -259 64 -198 64 -51 c 0
 64 17 93 103 164 210 c 1
 228 170 l 1
 178 87 158 22 158 -27 c 0
 158 -126 242 -160 344 -160 c 0
 498 -160 691 -80 691 -16 c 0
 691 35 656 117 590 225 c 1
 678 289 l 1
EndSplineSet
Colour: ffda6b
EndChar

StartChar: _.nun.fina
Encoding: 65589 -1 53
GlifName: _.nun.fina
Width: 936
VWidth: 1413
GlyphClass: 1
UnlinkRmOvrlpSave: 1
Flags: HMW
LayerCount: 2
Fore
SplineSet
64 -51 m 0
 64 17 93 103 164 210 c 1
 228 170 l 1
 178 87 158 22 158 -27 c 0
 158 -126 242 -160 344 -160 c 0
 498 -160 691 -80 691 -16 c 0
 691 35 656 117 590 225 c 1
 678 289 l 1
 685 274 693 262 700 248 c 1
 700 256 l 1
 748 188 796 100 936 100 c 1
 936 -0 l 1
 871 0 820 10 788 31 c 1
 789 20 791 10 791 -0 c 0
 791 -2 791 -3 791 -5 c 0
 791 -156 560 -259 358 -259 c 0
 202 -259 64 -198 64 -51 c 0
EndSplineSet
Colour: ffda6b
EndChar

StartChar: _.vav.isol
Encoding: 65590 -1 54
GlifName: _.vav.isol
Width: 473
VWidth: 1304
GlyphClass: 1
UnlinkRmOvrlpSave: 1
Flags: HMW
LayerCount: 2
Fore
SplineSet
64 148 m 0
 64 250 147 379 219 379 c 0
 347 379 409 181 409 74 c 0
 409 -81 324 -212 155 -319 c 1
 96 -240 l 1
 198 -174 302 -89 313 40 c 1
 284 25 251 18 218 18 c 0
 138 18 64 61 64 148 c 0
221 278 m 0
 187 278 140 210 140 159 c 0
 140 121 186 106 230 106 c 0
 272 106 311 119 311 140 c 1
 305 179 268 278 221 278 c 0
EndSplineSet
Colour: ffda6b
EndChar

StartChar: _.vav.fina
Encoding: 65591 -1 55
GlifName: _.vav.fina
Width: 512
VWidth: 1304
GlyphClass: 1
UnlinkRmOvrlpSave: 1
Flags: HMW
LayerCount: 2
Fore
SplineSet
64 133 m 0
 64 213 112 400 222 400 c 0
 341 400 406 201 410 104 c 1
 459 99 478 98 512 98 c 1
 512 -1 l 1
 462 -1 426 0 404 4 c 1
 379 -115 298 -219 159 -309 c 1
 98 -230 l 1
 205 -160 273 -111 315 13 c 1
 231 17 64 15 64 133 c 0
314 113 m 1
 307 160 266 288 221 288 c 0
 181 288 155 197 155 155 c 0
 155 116 286 113 314 113 c 1
EndSplineSet
Colour: ffda6b
EndChar

StartChar: _.dal.isol
Encoding: 65592 -1 56
GlifName: _.dal.isol
Width: 585
VWidth: 1304
GlyphClass: 1
UnlinkRmOvrlpSave: 1
Flags: HMW
LayerCount: 2
Fore
SplineSet
203 81 m 0
 260 81 427 93 427 144 c 0
 427 250 372 354 260 457 c 1
 332 523 l 1
 449 411 512 284 521 144 c 1
 521 140 l 2
 521 78 459 35 409 16 c 0
 345 -9 281 -21 217 -21 c 0
 154 -21 102 -10 64 12 c 1
 105 101 l 1
 127 87 160 81 203 81 c 0
EndSplineSet
Colour: ffda6b
EndChar

StartChar: _.dal.fina
Encoding: 65593 -1 57
GlifName: _.dal.fina
Width: 672
VWidth: 1304
GlyphClass: 1
UnlinkRmOvrlpSave: 1
Flags: HMW
LayerCount: 2
Fore
SplineSet
64 10 m 1
 105 100 l 1
 126 88 156 80 198 80 c 0
 271 80 349 105 430 155 c 1
 267 479 l 1
 357 524 l 1
 513 207 l 2
 533 166 548 141 560 130 c 0
 582 109 619 100 672 100 c 1
 672 -1 l 1
 578 -1 515 22 478 69 c 1
 384 9 290 -21 198 -21 c 0
 146 -21 102 -11 64 10 c 1
EndSplineSet
Colour: ffda6b
EndChar

StartChar: _.ree.isol
Encoding: 65594 -1 58
GlifName: _.ree.isol
Width: 444
VWidth: 1304
GlyphClass: 1
UnlinkRmOvrlpSave: 1
Flags: HMW
LayerCount: 2
Fore
SplineSet
304 317 m 1
 338 267 380 154 380 68 c 0
 380 -28 334 -115 289 -169 c 0
 240 -229 193 -274 150 -302 c 2
 123 -319 l 1
 64 -239 l 1
 103 -214 175 -147 206 -110 c 0
 237 -73 281 1 281 65 c 0
 281 121 254 197 235 231 c 1
 219 257 l 1
 304 317 l 1
EndSplineSet
Colour: ffda6b
EndChar

StartChar: _.ree.fina
Encoding: 65595 -1 59
GlifName: _.ree.fina
Width: 479
VWidth: 1304
GlyphClass: 1
UnlinkRmOvrlpSave: 1
Flags: HMW
LayerCount: 2
Fore
SplineSet
64 -239 m 1
 103 -214 175 -146 206 -111 c 0
 237 -72 281 -1 281 65 c 0
 281 121 254 196 235 230 c 1
 219 256 l 1
 303 316 l 1
 329 281 354 214 369 156 c 1
 386 123 427 98 479 98 c 1
 479 -0 l 1
 438 0 404 6 377 20 c 1
 367 -55 326 -124 289 -170 c 0
 239 -230 193 -274 150 -302 c 2
 123 -319 l 1
 64 -239 l 1
EndSplineSet
Colour: ffda6b
EndChar

StartChar: _.he8.isol
Encoding: 65596 -1 60
GlifName: _.he8.isol
Width: 549
VWidth: 1304
GlyphClass: 1
UnlinkRmOvrlpSave: 1
Flags: HMW
LayerCount: 2
Fore
SplineSet
64 160 m 0
 64 266 130 401 183 486 c 1
 176 491 170 497 164 500 c 1
 207 601 l 1
 414 442 485 300 485 202 c 0
 485 73 397 0 254 -0 c 0
 112 1 64 70 64 160 c 0
159 189 m 0
 159 139 182 102 251 102 c 0
 252 102 253 102 254 102 c 0
 321 102 387 107 387 181 c 0
 387 253 313 357 246 428 c 1
 216 376 159 267 159 189 c 0
EndSplineSet
Colour: ffda6b
EndChar

StartChar: _.he8.fina
Encoding: 65597 -1 61
GlifName: _.he8.fina
Width: 568
VWidth: 1304
GlyphClass: 1
UnlinkRmOvrlpSave: 1
Flags: HMW
LayerCount: 2
Fore
SplineSet
64 210 m 0
 64 339 159 427 277 471 c 1
 265 524 l 1
 348 567 l 1
 437 187 l 1
 448 132 470 103 522 101 c 0
 532 100 548 100 568 100 c 1
 568 -0 l 2
 568 -1 559 -2 546 -2 c 0
 505 -2 413 12 368 100 c 1
 326 100 275 94 227 94 c 0
 141 94 64 111 64 210 c 0
145 210 m 0
 145 200 216 199 279 199 c 0
 302 199 324 199 341 199 c 1
 300 375 l 1
 232 349 145 294 145 210 c 0
EndSplineSet
Colour: ffda6b
EndChar

StartChar: _.he8.medi
Encoding: 65598 -1 62
GlifName: _.he8.medi
Width: 574
VWidth: 1304
GlyphClass: 1
UnlinkRmOvrlpSave: 1
Flags: HMW
LayerCount: 2
Fore
SplineSet
-50 50 m 0
 -50 76 -26 100 0 100 c 2
 62 100 l 2
 72 100 81 100 90 100 c 1
 88 118 87 137 87 155 c 0
 87 327 181 477 255 477 c 0
 329 477 405 358 405 239 c 0
 405 139 351 39 196 9 c 1
 230 -57 294 -105 370 -142 c 1
 354 -112 346 -81 346 -51 c 0
 346 29 401 100 503 100 c 0
 504 100 504 100 505 100 c 2
 574 100 l 1
 574 -0 l 1
 486 -0 l 2
 446 0 429 -23 429 -55 c 0
 429 -99 460 -159 500 -197 c 1
 474 -291 l 1
 267 -231 161 -120 115 -0 c 1
 0 -0 l 1
 -25 1 -50 24 -50 50 c 0
264 348 m 0
 217 348 164 280 164 165 c 0
 164 147 165 128 168 108 c 1
 291 130 328 189 328 243 c 0
 328 298 290 348 264 348 c 0
EndSplineSet
Colour: ffda6b
EndChar

StartChar: _.he8.init
Encoding: 65599 -1 63
GlifName: _.he8.init
Width: 695
VWidth: 1304
GlyphClass: 1
UnlinkRmOvrlpSave: 1
Flags: HMW
LayerCount: 2
Fore
SplineSet
103 241 m 0
 103 340 158 412 218 455 c 1
 209 461 190 471 159 487 c 1
 196 577 l 1
 248 551 302 520 356 484 c 0
 442 430 512 365 566 290 c 0
 596 250 631 178 631 117 c 0
 631 62 582 4 545 -15 c 0
 524 -26 504 -31 487 -31 c 0
 441 -31 385 -19 319 6 c 0
 292 16 268 26 250 36 c 1
 188 13 118 0 34 -0 c 2
 0 -0 l 2
 -25 0 -50 24 -50 50 c 0
 -49 76 -25 100 0 100 c 2
 34 100 l 2
 78 100 117 104 154 111 c 1
 120 152 103 195 103 241 c 0
183 242 m 0
 183 220 189 200 201 184 c 0
 213 168 229 153 250 138 c 1
 320 170 355 211 355 261 c 0
 355 324 348 364 332 385 c 0
 330 390 323 394 317 394 c 0
 291 394 263 379 231 349 c 0
 199 321 183 285 183 242 c 0
487 69 m 0
 522 69 550 97 550 134 c 0
 550 154 539 178 521 209 c 0
 503 239 475 272 434 308 c 1
 435 288 436 272 436 261 c 0
 436 198 408 141 350 93 c 1
 404 77 450 69 487 69 c 0
EndSplineSet
Colour: ffda6b
EndChar

StartChar: _.yeh.fina
Encoding: 65600 -1 64
GlifName: _.yeh.fina
Width: 845
VWidth: 1304
GlyphClass: 1
UnlinkRmOvrlpSave: 1
Flags: HMW
LayerCount: 2
Fore
SplineSet
365 -259 m 0
 204 -259 64 -201 64 -51 c 0
 64 17 93 103 164 210 c 1
 228 170 l 1
 178 87 158 22 158 -27 c 0
 158 -125 242 -160 343 -160 c 0
 490 -160 653 -138 674 -63 c 0
 674 -61 674 -59 674 -57 c 0
 674 -25 635 11 545 38 c 1
 574 140 l 1
 672 115 754 100 845 100 c 1
 845 -0 l 1
 777 0 754 6 718 20 c 1
 750 5 772 -22 772 -64 c 0
 772 -66 772 -68 772 -70 c 1
 769 -70 l 1
 772 -70 l 1
 745 -197 549 -259 365 -259 c 0
EndSplineSet
Colour: ffda6b
EndChar

StartChar: _.yeh.isol
Encoding: 65601 -1 65
GlifName: _.yeh.isol
Width: 929
VWidth: 1304
GlyphClass: 1
UnlinkRmOvrlpSave: 1
Flags: HMW
LayerCount: 2
Fore
SplineSet
365 -259 m 0
 204 -259 64 -201 64 -51 c 0
 64 17 93 103 164 210 c 1
 228 170 l 1
 178 87 158 22 158 -27 c 0
 158 -125 242 -160 343 -160 c 0
 490 -160 654 -138 674 -62 c 0
 674 -60 674 -57 674 -55 c 0
 674 15 469 -19 469 144 c 0
 469 210 514 273 604 332 c 0
 641 357 675 369 707 369 c 0
 739 369 767 360 792 343 c 0
 818 326 842 299 865 263 c 1
 797 208 l 1
 772 249 743 269 711 269 c 0
 679 269 643 254 604 226 c 0
 565 198 562 191 562 165 c 0
 562 84 787 93 787 -26 c 0
 787 -56 773 -93 738 -142 c 0
 734 -147 731 -151 727 -152 c 0
 652 -225 505 -259 365 -259 c 0
EndSplineSet
Colour: ffda6b
EndChar

StartChar: _.hamze.isol
Encoding: 65602 -1 66
GlifName: _.hamze.isol
Width: 459
VWidth: 1304
GlyphClass: 2
Flags: HMW
LayerCount: 2
Fore
SplineSet
174 230 m 0
 174 210 198 170 220 170 c 0
 227 170 241 174 261 180 c 0
 281 187 320 194 380 204 c 1
 395 107 l 1
 322 93 284 86 278 84 c 0
 228 68 170 40 105 -1 c 1
 64 86 l 1
 103 109 127 123 134 127 c 1
 98 162 83 201 83 238 c 0
 83 316 149 384 232 384 c 0
 269 384 310 370 350 338 c 1
 297 263 l 1
 278 279 257 286 239 286 c 0
 203 286 174 261 174 230 c 0
EndSplineSet
Colour: ffda6b
EndChar

StartChar: _.keshide.medi
Encoding: 65603 -1 67
GlifName: _.keshide.medi
Width: 235
VWidth: 1304
GlyphClass: 2
Flags: HMW
LayerCount: 2
Fore
SplineSet
-12 100 m 2
 235 100 l 1
 235 0 l 1
 -12 0 l 2
 -24 0 -33 5 -40 15 c 0
 -47 25 -50 37 -50 50 c 0
 -50 63 -47 75 -40 85 c 0
 -33 95 -24 100 -12 100 c 2
EndSplineSet
Colour: ffda6b
EndChar

StartChar: _.dot.1u
Encoding: 65604 -1 68
GlifName: _.dot.1u
Width: 0
VWidth: 1304
GlyphClass: 2
Flags: HMW
LayerCount: 2
Fore
SplineSet
0 80 m 1
 76 157 l 1
 155 80 l 1
 76 2 l 1
 0 80 l 1
EndSplineSet
Colour: ffda6b
EndChar

StartChar: _.dot.2u
Encoding: 65605 -1 69
GlifName: _.dot.2u
Width: 0
VWidth: 1304
GlyphClass: 2
UnlinkRmOvrlpSave: 1
Flags: HMW
LayerCount: 2
Fore
SplineSet
0 80 m 1
 76 157 l 1
 155 80 l 1
 76 2 l 1
 0 80 l 1
170 80 m 1
 246 157 l 1
 325 80 l 1
 246 2 l 1
 170 80 l 1
EndSplineSet
Colour: ffda6b
EndChar

StartChar: _.dot.3u
Encoding: 65606 -1 70
GlifName: _.dot.3u
Width: 0
VWidth: 1304
GlyphClass: 2
UnlinkRmOvrlpSave: 1
Flags: HMW
LayerCount: 2
Fore
SplineSet
0 80 m 1
 76 157 l 1
 155 80 l 1
 76 2 l 1
 0 80 l 1
85 199 m 1
 161 277 l 1
 240 199 l 1
 161 122 l 1
 85 199 l 1
170 80 m 1
 246 157 l 1
 325 80 l 1
 246 2 l 1
 170 80 l 1
EndSplineSet
Colour: ffda6b
EndChar

StartChar: _.dot.1d
Encoding: 65607 -1 71
GlifName: _.dot.1d
Width: 0
VWidth: 1304
GlyphClass: 2
Flags: HMW
LayerCount: 2
Fore
SplineSet
0 -80 m 1
 76 -3 l 1
 155 -80 l 1
 76 -158 l 1
 0 -80 l 1
EndSplineSet
Colour: ffda6b
EndChar

StartChar: _.dot.2d
Encoding: 65608 -1 72
GlifName: _.dot.2d
Width: 0
VWidth: 1304
GlyphClass: 2
UnlinkRmOvrlpSave: 1
Flags: HMW
LayerCount: 2
Fore
SplineSet
0 -80 m 1
 76 -3 l 1
 155 -80 l 1
 76 -158 l 1
 0 -80 l 1
170 -80 m 1
 246 -3 l 1
 325 -80 l 1
 246 -158 l 1
 170 -80 l 1
EndSplineSet
Colour: ffda6b
EndChar

StartChar: _.dot.3d
Encoding: 65609 -1 73
GlifName: _.dot.3d
Width: 0
VWidth: 1304
GlyphClass: 2
UnlinkRmOvrlpSave: 1
Flags: HMW
LayerCount: 2
Fore
SplineSet
0 -80 m 1
 76 -3 l 1
 155 -80 l 1
 76 -158 l 1
 0 -80 l 1
85 -200 m 1
 161 -122 l 1
 240 -200 l 1
 161 -277 l 1
 85 -200 l 1
170 -80 m 1
 246 -3 l 1
 325 -80 l 1
 246 -158 l 1
 170 -80 l 1
EndSplineSet
Colour: ffda6b
EndChar

StartChar: _.num.0
Encoding: 65611 -1 75
GlifName: _.num.0
Width: 395
VWidth: 1424
GlyphClass: 2
Flags: HMW
LayerCount: 2
Fore
SplineSet
204 167 m 0
 116 167 75 242 75 316 c 0
 75 392 118 468 199 468 c 0
 278 468 320 387 320 310 c 0
 320 237 283 167 204 167 c 0
146 317 m 0
 146 285 163 252 198 252 c 0
 233 252 250 284 250 316 c 0
 250 349 232 382 198 383 c 0
 164 383 146 350 146 317 c 0
EndSplineSet
Colour: ffda6b
EndChar

StartChar: _.num.1
Encoding: 65612 -1 76
GlifName: _.num.1
Width: 325
VWidth: 1331
GlyphClass: 2
Flags: HMW
LayerCount: 2
Fore
SplineSet
78 663 m 0
 71 675 78 686 85 697 c 2
 142 784 l 2
 149 795 161 785 163 780 c 0
 249 499 250 494 250 15 c 0
 250 6 245 0 234 -4 c 2
 197 -19 l 1
 176 -29 170 -14 170 -3 c 0
 170 8 170 20 170 31 c 0
 170 407 129 524 78 663 c 0
EndSplineSet
Colour: ffda6b
EndChar

StartChar: _.num.2
Encoding: 65613 -1 77
GlifName: _.num.2
Width: 610
VWidth: 1331
GlyphClass: 2
Flags: HMW
LayerCount: 2
Fore
SplineSet
78 663 m 0
 71 675 78 686 85 697 c 2
 142 784 l 2
 149 795 161 785 163 780 c 0
 180 725 194 679 205 640 c 0
 230 570 269 519 348 519 c 0
 349 519 351 519 352 519 c 0
 425 519 445 556 445 602 c 0
 445 638 433 680 422 714 c 0
 417 726 421 732 428 736 c 2
 478 769 l 2
 485 774 495 780 499 766 c 0
 524 701 535 644 535 597 c 0
 535 462 446 400 342 400 c 0
 311 400 276 407 244 421 c 1
 250 332 250 214 250 15 c 0
 250 6 245 0 234 -4 c 2
 197 -19 l 1
 176 -29 170 -14 170 -3 c 0
 170 8 170 20 170 31 c 0
 170 407 129 524 78 663 c 0
EndSplineSet
Colour: ffda6b
EndChar

StartChar: _.num.3
Encoding: 65614 -1 78
GlifName: _.num.3
Width: 836
VWidth: 1331
GlyphClass: 2
Flags: HMW
LayerCount: 2
Fore
SplineSet
78 663 m 0
 71 675 78 686 85 697 c 2
 142 784 l 2
 149 795 161 785 163 780 c 0
 175 737 186 696 196 657 c 0
 221 578 241 519 326 519 c 0
 327 519 329 519 330 519 c 0
 403 519 423 556 423 602 c 0
 423 638 410 680 399 714 c 0
 394 726 399 732 406 736 c 2
 456 769 l 2
 463 774 473 780 477 766 c 0
 502 702 513 646 513 599 c 0
 513 586 512 573 510 561 c 1
 539 541 567 532 591 532 c 0
 637 532 670 567 670 635 c 0
 670 664 664 699 651 740 c 0
 647 752 651 758 658 763 c 2
 708 795 l 2
 715 800 725 805 729 791 c 0
 751 734 761 681 761 634 c 0
 761 501 684 417 589 417 c 0
 550 417 508 431 468 461 c 1
 432 419 378 400 319 400 c 0
 292 400 265 406 239 417 c 1
 248 328 252 240 252 143 c 0
 252 102 251 60 250 15 c 0
 250 6 245 0 234 -4 c 2
 197 -19 l 1
 176 -29 170 -14 170 -3 c 0
 170 1 170 7 170 11 c 0
 170 307 130 522 78 663 c 0
EndSplineSet
Colour: ffda6b
EndChar

StartChar: _.num.4.fa
Encoding: 65615 -1 79
GlifName: _.num.4.fa
Width: 701
VWidth: 1331
GlyphClass: 2
Flags: HMW
LayerCount: 2
Fore
SplineSet
231 608 m 1
 235 708 291 798 420 798 c 0
 491 798 567 770 615 716 c 1
 626 710 619 702 614 695 c 2
 591 662 l 2
 586 656 579 654 568 661 c 0
 516 692 473 705 437 705 c 0
 360 705 319 645 319 583 c 0
 319 553 328 523 346 498 c 1
 384 478 425 468 469 468 c 0
 505 468 544 475 582 490 c 0
 594 495 603 493 605 486 c 2
 621 439 l 2
 623 430 632 424 620 418 c 0
 557 385 495 370 437 370 c 0
 359 370 285 400 237 439 c 1
 248 343 252 248 252 143 c 0
 252 102 251 60 250 15 c 0
 250 6 245 0 234 -4 c 2
 197 -19 l 1
 176 -29 170 -14 170 -3 c 0
 170 1 170 7 170 11 c 0
 170 307 130 522 78 663 c 0
 71 675 78 686 85 697 c 2
 142 784 l 2
 149 795 161 785 163 780 c 0
 172 750 181 721 188 693 c 0
 199 661 214 633 231 608 c 1
EndSplineSet
Colour: ffda6b
EndChar

StartChar: _.num.5.fa
Encoding: 65617 -1 81
GlifName: _.num.5.fa
Width: 744
VWidth: 1331
GlyphClass: 2
Flags: HMW
LayerCount: 2
Fore
SplineSet
75 182 m 0
 75 290 131 446 288 652 c 1
 273 664 259 677 244 688 c 0
 222 705 232 715 234 720 c 2
 271 779 l 2
 275 785 278 795 287 795 c 0
 292 795 299 792 308 784 c 0
 468 650 669 427 669 188 c 0
 669 186 669 184 669 182 c 0
 669 51 584 -6 504 -6 c 0
 445 -6 387 25 367 80 c 1
 330 27 276 0 224 0 c 0
 147 0 75 60 75 182 c 0
508 128 m 0
 546 128 578 150 578 184 c 0
 578 284 515 433 362 585 c 1
 218 399 171 275 171 202 c 0
 171 143 201 116 235 116 c 0
 278 116 328 158 330 230 c 1
 330 237 l 2
 330 242 331 251 345 255 c 2
 401 269 l 1
 411 273 415 259 415 257 c 2
 415 248 l 1
 417 159 465 128 508 128 c 0
EndSplineSet
Colour: ffda6b
EndChar

StartChar: _.num.6.fa
Encoding: 65619 -1 83
GlifName: _.num.6.fa
Width: 722
VWidth: 1331
GlyphClass: 2
Flags: HMW
LayerCount: 2
Fore
SplineSet
79 38 m 0
 170 154 249 251 336 340 c 1
 208 365 130 468 130 570 c 0
 130 685 229 799 467 799 c 0
 470 799 474 799 477 799 c 1
 489 804 491 794 495 785 c 2
 508 748 l 2
 512 741 509 731 497 729 c 0
 299 676 234 614 234 561 c 0
 234 495 335 444 412 444 c 0
 431 444 449 447 463 454 c 1
 512 496 567 536 629 578 c 0
 633 580 648 581 647 569 c 2
 636 464 l 2
 635 452 633 439 621 434 c 0
 569 403 512 362 449 309 c 0
 353 228 244 117 130 -26 c 0
 124 -33 110 -42 99 -21 c 2
 80 15 l 1
 74 24 74 32 79 38 c 0
EndSplineSet
Colour: ffda6b
EndChar

StartChar: _.num.7
Encoding: 65621 -1 85
GlifName: _.num.7
Width: 669
VWidth: 1331
GlyphClass: 2
Flags: HMW
LayerCount: 2
Fore
SplineSet
80 646 m 0
 71 657 76 668 82 679 c 1
 124 775 l 2
 129 786 143 779 145 775 c 0
 239 585 295 431 334 252 c 1
 373 431 430 585 524 775 c 0
 526 779 539 786 545 775 c 1
 587 679 l 1
 593 668 598 657 589 646 c 0
 515 516 380 272 378 21 c 0
 378 6 335 -17 310 -17 c 0
 299 -17 291 -13 291 -1 c 2
 291 21 l 1
 290 272 154 516 80 646 c 0
EndSplineSet
Colour: ffda6b
EndChar

StartChar: _.num.8
Encoding: 65622 -1 86
GlifName: _.num.8
Width: 669
VWidth: 1331
GlyphClass: 2
Flags: HMW
LayerCount: 2
Fore
SplineSet
80 118 m 0
 154 248 290 493 291 743 c 1
 291 766 l 2
 291 778 299 782 310 782 c 0
 335 782 378 758 378 743 c 0
 380 493 515 248 589 118 c 0
 598 108 593 97 587 85 c 2
 545 -11 l 1
 539 -22 526 -15 524 -10 c 0
 430 180 373 335 334 512 c 1
 295 335 239 180 145 -10 c 0
 143 -15 129 -22 124 -11 c 2
 82 85 l 2
 76 97 71 108 80 118 c 0
EndSplineSet
Colour: ffda6b
EndChar

StartChar: _.num.9
Encoding: 65623 -1 87
GlifName: _.num.9
Width: 604
VWidth: 1331
GlyphClass: 2
Flags: HMW
LayerCount: 2
Fore
SplineSet
75 532 m 0
 75 654 167 798 267 800 c 1
 421 798 441 550 448 426 c 1
 464 277 493 159 526 69 c 0
 533 58 525 48 518 37 c 2
 462 -51 l 2
 455 -62 442 -52 441 -47 c 0
 392 111 370 241 360 378 c 1
 321 369 286 365 256 365 c 0
 124 365 75 443 75 532 c 0
152 552 m 0
 152 511 186 475 291 475 c 0
 310 475 330 477 353 479 c 1
 346 560 322 678 251 679 c 0
 219 679 152 610 152 552 c 0
EndSplineSet
Colour: ffda6b
EndChar

StartChar: _.sing.backslash
Encoding: 65624 -1 88
GlifName: _.sing.backslash
Width: 503
VWidth: 1197
GlyphClass: 2
Flags: HMW
LayerCount: 2
Fore
SplineSet
50 800 m 1
 151 800 l 1
 453 -1 l 1
 352 -1 l 1
 50 800 l 1
EndSplineSet
Colour: ffda6b
EndChar

StartChar: _.sing.slash
Encoding: 65625 -1 89
GlifName: _.sing.slash
Width: 503
VWidth: 1197
GlyphClass: 2
Flags: HMW
LayerCount: 2
Fore
SplineSet
50 -1 m 1
 352 800 l 1
 453 800 l 1
 151 -1 l 1
 50 -1 l 1
EndSplineSet
Colour: ffda6b
EndChar

StartChar: _.sing.tajob
Encoding: 65626 -1 90
GlifName: _.sing.tajob
Width: 265
VWidth: 1197
GlyphClass: 2
Flags: HMW
LayerCount: 2
Fore
SplineSet
50 84 m 1
 132 166 l 1
 215 84 l 1
 132 1 l 1
 50 84 l 1
76 795 m 1
 174 795 l 1
 158 260 l 1
 92 260 l 1
 76 795 l 1
EndSplineSet
Colour: ffda6b
EndChar

StartChar: _.sing.soal
Encoding: 65627 -1 91
GlifName: _.sing.soal
Width: 481
VWidth: 1304
GlyphClass: 2
Flags: HMW
LayerCount: 2
Fore
SplineSet
50 612 m 0
 50 733 154 802 251 802 c 0
 335 802 416 754 431 657 c 1
 431 541 l 1
 335 541 l 1
 335 631 329 700 231 700 c 0
 192 700 151 674 151 625 c 0
 151 598 162 565 192 525 c 0
 273 419 311 403 311 253 c 1
 204 253 l 1
 204 282 l 2
 204 423 50 482 50 612 c 0
178 84 m 1
 261 166 l 1
 343 84 l 1
 261 1 l 1
 178 84 l 1
EndSplineSet
Colour: ffda6b
EndChar

StartChar: _.sing.beezafeh
Encoding: 65628 -1 92
GlifName: _.sing.beezafeh
Width: 500
VWidth: 1352
GlyphClass: 2
Flags: HMW
LayerCount: 2
Fore
SplineSet
50 250 m 1
 50 351 l 1
 200 351 l 1
 200 501 l 1
 300 501 l 1
 300 351 l 1
 450 351 l 1
 450 250 l 1
 300 250 l 1
 300 101 l 1
 200 101 l 1
 200 250 l 1
 50 250 l 1
EndSplineSet
Colour: ffda6b
EndChar

StartChar: _.sing.menha
Encoding: 65629 -1 93
GlifName: _.sing.menha
Width: 500
VWidth: 0
GlyphClass: 2
Flags: HMW
LayerCount: 2
Fore
SplineSet
50 250 m 1
 50 351 l 1
 450 351 l 1
 450 250 l 1
 50 250 l 1
EndSplineSet
Colour: ffda6b
EndChar

StartChar: _.sing.khateh_tire
Encoding: 65630 -1 94
GlifName: _.sing.khateh_tire
Width: 200
VWidth: 0
GlyphClass: 2
Flags: HMW
LayerCount: 2
Fore
SplineSet
50 -100 m 1
 50 300 l 1
 150 300 l 1
 150 -100 l 1
 50 -100 l 1
50 401 m 1
 50 801 l 1
 150 801 l 1
 150 401 l 1
 50 401 l 1
EndSplineSet
Colour: ffda6b
EndChar

StartChar: _.sing.virgul
Encoding: 65631 -1 95
GlifName: _.sing.virgul
Width: 232
VWidth: 1197
GlyphClass: 2
Flags: HMW
LayerCount: 2
Fore
SplineSet
121 -0 m 0
 73 0 50 53 50 99 c 0
 50 160 88 228 145 283 c 1
 182 246 l 1
 162 225 134 195 134 161 c 0
 134 140 148 119 167 100 c 0
 176 90 182 75 182 60 c 0
 182 27 154 0 121 -0 c 0
EndSplineSet
Colour: ffda6b
EndChar

StartChar: _.sing.dot_virgul
Encoding: 65632 -1 96
GlifName: _.sing.dot_virgul
Width: 265
VWidth: 1304
GlyphClass: 2
Flags: HMW
LayerCount: 2
Fore
SplineSet
50 84 m 1
 132 166 l 1
 215 84 l 1
 132 1 l 1
 50 84 l 1
135 250 m 0
 87 250 64 304 64 349 c 0
 64 410 101 478 158 533 c 1
 195 496 l 1
 175 475 148 445 148 411 c 0
 148 390 161 368 180 349 c 0
 189 339 195 326 195 310 c 0
 195 277 168 250 135 250 c 0
EndSplineSet
Colour: ffda6b
EndChar

StartChar: _.sing.2noqte
Encoding: 65633 -1 97
GlifName: _.sing.2noqte
Width: 265
VWidth: 1352
GlyphClass: 2
Flags: HMW
LayerCount: 2
Fore
SplineSet
50 84 m 1
 132 166 l 1
 215 84 l 1
 132 1 l 1
 50 84 l 1
50 324 m 1
 132 407 l 1
 215 324 l 1
 132 241 l 1
 50 324 l 1
EndSplineSet
Colour: ffda6b
EndChar

StartChar: _.sing.noqte
Encoding: 65634 -1 98
GlifName: _.sing.noqte
Width: 266
VWidth: 1352
GlyphClass: 2
Flags: HMW
LayerCount: 2
Fore
SplineSet
50 84 m 1
 134 166 l 1
 216 84 l 1
 134 1 l 1
 50 84 l 1
EndSplineSet
Colour: ffda6b
EndChar

StartChar: _.sing.gheiomeh.right
Encoding: 65635 -1 99
GlifName: _.sing.gheiomeh.right
Width: 527
VWidth: 1352
GlyphClass: 2
Flags: HMW
LayerCount: 2
Fore
SplineSet
50 200 m 0
 50 302 92 405 173 500 c 1
 247 433 l 1
 185 346 153 267 153 191 c 0
 153 115 185 42 247 -32 c 1
 173 -97 l 1
 91 -2 50 99 50 200 c 0
280 200 m 0
 280 302 322 405 403 500 c 1
 477 433 l 1
 414 346 383 268 383 192 c 0
 383 116 415 43 477 -32 c 1
 403 -97 l 1
 321 -2 280 99 280 200 c 0
EndSplineSet
Colour: ffda6b
EndChar

StartChar: _.sing.gheiomeh.left
Encoding: 65636 -1 100
GlifName: _.sing.gheiomeh.left
Width: 527
VWidth: 1352
GlyphClass: 2
Flags: HMW
LayerCount: 2
Fore
SplineSet
50 -32 m 1
 112 43 144 116 144 192 c 0
 144 268 113 346 50 433 c 1
 124 500 l 1
 205 405 247 302 247 200 c 0
 247 99 206 -2 124 -97 c 1
 50 -32 l 1
280 -32 m 1
 342 43 374 116 374 192 c 0
 374 268 343 346 280 433 c 1
 354 500 l 1
 435 405 477 302 477 200 c 0
 477 99 436 -2 354 -97 c 1
 280 -32 l 1
EndSplineSet
Colour: ffda6b
EndChar

StartChar: _.sing.parantez.right
Encoding: 65637 -1 101
GlifName: _.sing.parantez.right
Width: 329
VWidth: 1352
GlyphClass: 2
Flags: HMW
LayerCount: 2
Fore
SplineSet
50 301 m 0
 50 441 112 580 237 759 c 1
 279 719 l 1
 193 595 149 446 149 298 c 0
 149 150 193 2 279 -122 c 1
 238 -160 l 1
 113 20 50 161 50 301 c 0
EndSplineSet
Colour: ffda6b
EndChar

StartChar: _.sing.parantez.left
Encoding: 65638 -1 102
GlifName: _.sing.parantez.left
Width: 329
VWidth: 1352
GlyphClass: 2
Flags: HMW
LayerCount: 2
Fore
SplineSet
50 -122 m 1
 136 2 179 150 179 298 c 0
 179 446 136 595 50 719 c 1
 92 759 l 1
 217 580 279 441 279 301 c 0
 279 161 216 20 91 -160 c 1
 50 -122 l 1
EndSplineSet
Colour: ffda6b
EndChar

StartChar: _.sing.parantez_tazeeni.right
Encoding: 65639 -1 103
GlifName: _.sing.parantez_tazeeni.right
Width: 503
VWidth: 0
GlyphClass: 2
Flags: HMW
LayerCount: 2
Fore
SplineSet
50 342 m 1
 72 410 l 1
 123 393 l 2
 139 388 155 381 172 375 c 0
 179 371 187 367 196 365 c 1
 200 393 206 423 216 453 c 1
 216 513 l 1
 238 513 l 1
 269 589 316 669 379 759 c 1
 421 719 l 1
 347 612 305 488 294 361 c 1
 321 372 351 384 379 393 c 2
 429 410 l 1
 453 342 l 1
 401 326 l 2
 369 316 333 308 299 298 c 1
 322 272 344 244 365 216 c 2
 397 173 l 1
 339 132 l 1
 309 175 l 2
 307 180 302 183 300 187 c 1
 316 77 357 -28 421 -122 c 1
 380 -160 l 1
 288 -27 229 85 204 191 c 1
 202 186 198 180 194 175 c 2
 162 132 l 1
 105 173 l 1
 136 216 l 1
 154 239 174 263 192 285 c 1
 192 301 l 1
 161 308 132 316 102 326 c 2
 50 342 l 1
EndSplineSet
Colour: ffda6b
EndChar

StartChar: _.sing.koroshe.right
Encoding: 65641 -1 105
GlifName: _.sing.koroshe.right
Width: 306
VWidth: 1197
GlyphClass: 2
Flags: HMW
LayerCount: 2
Fore
SplineSet
50 -202 m 1
 50 798 l 1
 256 798 l 1
 256 694 l 1
 150 694 l 1
 150 -97 l 1
 256 -97 l 1
 256 -202 l 1
 50 -202 l 1
EndSplineSet
Colour: ffda6b
EndChar

StartChar: _.sing.koroshe.left
Encoding: 65642 -1 106
GlifName: _.sing.koroshe.left
Width: 306
VWidth: 1197
GlyphClass: 2
Flags: HMW
LayerCount: 2
Fore
SplineSet
50 -99 m 1
 156 -99 l 1
 156 693 l 1
 50 693 l 1
 50 798 l 1
 256 798 l 1
 256 -202 l 1
 50 -202 l 1
 50 -99 l 1
EndSplineSet
Colour: ffda6b
EndChar

StartChar: _.sing.akolad.right
Encoding: 65643 -1 107
GlifName: _.sing.akolad.right
Width: 402
VWidth: 1197
GlyphClass: 2
Flags: HMW
LayerCount: 2
Fore
SplineSet
50 251 m 1
 50 349 l 1
 118 349 150 382 150 464 c 2
 150 620 l 2
 150 701 149 800 352 800 c 1
 352 700 l 1
 270 700 249 674 249 619 c 2
 249 474 l 2
 249 421 232 321 178 300 c 1
 232 279 249 180 249 127 c 2
 249 -19 l 2
 249 -73 270 -100 352 -100 c 1
 352 -200 l 1
 149 -200 150 -101 150 -20 c 2
 150 136 l 2
 150 218 118 251 50 251 c 1
EndSplineSet
Colour: ffda6b
EndChar

StartChar: _.sing.akolad.left
Encoding: 65644 -1 108
GlifName: _.sing.akolad.left
Width: 402
VWidth: 1197
GlyphClass: 2
Flags: HMW
LayerCount: 2
Fore
SplineSet
50 -100 m 1
 131 -100 151 -73 151 -19 c 2
 151 127 l 2
 151 180 169 279 224 300 c 1
 169 321 151 421 151 474 c 2
 151 619 l 2
 151 674 131 700 50 700 c 1
 50 800 l 1
 252 800 252 701 252 620 c 2
 252 464 l 2
 252 382 284 349 352 349 c 1
 352 251 l 1
 284 251 252 218 252 136 c 2
 252 -20 l 2
 252 -101 252 -200 50 -200 c 1
 50 -100 l 1
EndSplineSet
Colour: ffda6b
EndChar

StartChar: _.mark.maad
Encoding: 65645 -1 109
GlifName: _.mark.maad
Width: 0
VWidth: 1352
GlyphClass: 2
Flags: HMW
LayerCount: 2
Fore
SplineSet
0 26 m 1
 32 92 l 2
 44 119 64 138 89 138 c 0
 95 138 101 137 107 135 c 0
 146 124 179 119 210 119 c 0
 259 119 302 131 359 148 c 1
 366 74 l 1
 310 55 261 42 210 42 c 0
 172 42 131 49 86 65 c 1
 75 45 65 22 54 -0 c 1
 0 26 l 1
EndSplineSet
Colour: ffda6b
EndChar

StartChar: _.mark.fatheh
Encoding: 65646 -1 110
GlifName: _.mark.fatheh
Width: 0
VWidth: 2310
GlyphClass: 2
Flags: HMW
LayerCount: 2
Fore
SplineSet
0 45 m 1
 256 165 l 1
 278 114 l 1
 23 -5 l 1
 0 45 l 1
EndSplineSet
Colour: ffda6b
EndChar

StartChar: _.mark.kasreh
Encoding: 65647 -1 111
GlifName: _.mark.kasreh
Width: 0
VWidth: 2384
GlyphClass: 2
Flags: HMW
LayerCount: 2
Fore
SplineSet
0 -125 m 1
 256 -6 l 1
 278 -56 l 1
 23 -175 l 1
 0 -125 l 1
EndSplineSet
Colour: ffda6b
EndChar

StartChar: _.mark.zameh
Encoding: 65648 -1 112
GlifName: _.mark.zameh
Width: 0
VWidth: 2277
GlyphClass: 2
Flags: HMW
LayerCount: 2
Fore
SplineSet
202 287 m 0
 247 287 279 243 279 196 c 0
 279 155 255 109 193 80 c 2
 23 1 l 1
 0 50 l 1
 143 117 l 1
 124 139 111 165 111 193 c 0
 111 242 146 287 202 287 c 0
165 193 m 0
 165 179 172 164 179 155 c 2
 191 140 l 1
 215 153 229 173 229 191 c 0
 229 206 219 220 197 228 c 1
 173 223 165 208 165 193 c 0
EndSplineSet
Colour: ffda6b
EndChar

StartChar: _.mark.tanvin_fatheh
Encoding: 65649 -1 113
GlifName: _.mark.tanvin_fatheh
Width: 0
VWidth: 2280
GlyphClass: 2
Flags: HMW
LayerCount: 2
Fore
SplineSet
0 49 m 1
 256 168 l 1
 279 118 l 1
 23 -0 l 1
 0 49 l 1
0 170 m 1
 256 289 l 1
 279 240 l 1
 23 120 l 1
 0 170 l 1
EndSplineSet
Colour: ffda6b
EndChar

StartChar: _.mark.tanvin_kasreh
Encoding: 65650 -1 114
GlifName: _.mark.tanvin_kasreh
Width: 0
VWidth: 2413
GlyphClass: 2
Flags: HMW
LayerCount: 2
Fore
SplineSet
0 -120 m 1
 256 -1 l 1
 279 -51 l 1
 23 -170 l 1
 0 -120 l 1
0 -240 m 1
 256 -122 l 1
 279 -171 l 1
 23 -291 l 1
 0 -240 l 1
EndSplineSet
Colour: ffda6b
EndChar

StartChar: _.mark.tanvin_zameh
Encoding: 65651 -1 115
GlifName: _.mark.tanvin_zameh
Width: 0
VWidth: 2273
GlyphClass: 2
Flags: HMW
LayerCount: 2
Fore
SplineSet
226 287 m 0
 271 287 304 243 304 196 c 0
 304 155 280 109 218 80 c 2
 48 1 l 1
 25 50 l 1
 66 70 l 1
 70 79 73 90 73 100 c 0
 73 114 68 125 56 125 c 0
 52 125 48 125 43 122 c 2
 25 111 l 1
 0 151 l 1
 21 164 l 2
 32 170 42 172 51 172 c 0
 88 172 109 130 109 100 c 0
 109 96 109 93 108 90 c 1
 167 117 l 1
 148 139 136 165 136 193 c 0
 136 242 170 287 226 287 c 0
189 193 m 0
 189 179 196 164 203 155 c 2
 215 140 l 1
 239 153 253 173 253 191 c 0
 253 206 244 220 222 228 c 1
 198 223 189 208 189 193 c 0
EndSplineSet
Colour: ffda6b
EndChar

StartChar: _.mark.tashdid
Encoding: 65652 -1 116
GlifName: _.mark.tashdid
Width: 0
VWidth: 1833
GlyphClass: 2
Flags: HMW
LayerCount: 2
Fore
SplineSet
0 88 m 0
 0 92 0 96 0 100 c 2
 7 168 l 1
 51 164 l 1
 47 114 l 2
 47 111 47 109 47 106 c 0
 47 73 67 57 88 57 c 0
 110 57 133 77 133 116 c 2
 133 166 l 1
 177 166 l 1
 177 117 l 1
 179 73 199 55 218 55 c 0
 237 55 255 73 255 103 c 2
 255 164 l 1
 301 168 l 1
 301 101 l 2
 302 32 256 0 216 0 c 0
 189 0 164 14 157 40 c 1
 147 15 115 0 83 -0 c 0
 42 0 0 25 0 88 c 0
EndSplineSet
Colour: ffda6b
EndChar

StartChar: _.mark.hamze
Encoding: 65653 -1 117
GlifName: _.mark.hamze
Width: 0
VWidth: 1841
GlyphClass: 2
Flags: HMW
LayerCount: 2
Fore
SplineSet
0 49 m 1
 74 84 l 1
 47 106 34 138 34 170 c 0
 34 228 75 286 147 286 c 0
 167 286 189 282 213 272 c 1
 202 223 l 1
 185 227 170 229 157 229 c 0
 107 229 84 201 84 171 c 0
 84 146 99 121 127 108 c 1
 256 168 l 1
 278 118 l 1
 23 -0 l 1
 0 49 l 1
EndSplineSet
Colour: ffda6b
EndChar

StartChar: _.mark.sakon
Encoding: 65654 -1 118
GlifName: _.mark.sakon
Width: 0
VWidth: 2099
GlyphClass: 2
Flags: HMW
LayerCount: 2
Fore
SplineSet
81 -0 m 0
 35 0 0 39 0 85 c 0
 0 132 34 168 81 168 c 0
 122 168 144 146 158 118 c 0
 162 108 164 97 164 85 c 0
 164 47 142 18 113 7 c 0
 103 2 93 0 81 -0 c 0
80 120 m 0
 60 120 43 104 43 84 c 0
 43 64 60 47 80 47 c 0
 100 47 118 63 118 84 c 0
 118 104 100 120 80 120 c 0
EndSplineSet
Colour: ffda6b
EndChar

StartChar: _.mark.alef
Encoding: 65655 -1 119
GlifName: _.mark.alef
Width: 0
VWidth: 2091
GlyphClass: 2
Flags: HMW
LayerCount: 2
Fore
SplineSet
0 216 m 1
 50 235 l 1
 81 151 89 92 89 -3 c 1
 41 -3 l 1
 41 83 28 140 0 216 c 1
EndSplineSet
Colour: ffda6b
EndChar

StartChar: _.sing.momaiez
Encoding: 65656 -1 120
GlifName: _.sing.momaiez
Width: 408
VWidth: 1352
GlyphClass: 2
Flags: HMW
LayerCount: 2
Fore
SplineSet
50 -173 m 1
 263 412 l 1
 358 378 l 1
 144 -207 l 1
 50 -173 l 1
EndSplineSet
Colour: ffda6b
EndChar

StartChar: _.sing.hezare
Encoding: 65657 -1 121
GlifName: _.sing.hezare
Width: 222
VWidth: 1197
GlyphClass: 2
Flags: HMW
LayerCount: 2
Fore
SplineSet
50 900 m 1
 172 900 l 1
 130 700 l 1
 91 700 l 1
 50 900 l 1
EndSplineSet
Colour: ffda6b
EndChar

StartChar: _.sing.darsad
Encoding: 65658 -1 122
GlifName: _.sing.darsad
Width: 665
VWidth: 1197
GlyphClass: 2
Flags: HMW
LayerCount: 2
Fore
SplineSet
50 587 m 1
 132 670 l 1
 215 587 l 1
 132 505 l 1
 50 587 l 1
131 -1 m 1
 433 800 l 1
 534 800 l 1
 232 -1 l 1
 131 -1 l 1
449 244 m 1
 533 326 l 1
 615 244 l 1
 533 161 l 1
 449 244 l 1
EndSplineSet
Colour: ffda6b
EndChar

StartChar: _.sing.mosavi
Encoding: 65659 -1 123
GlifName: _.sing.mosavi
Width: 500
VWidth: 1197
GlyphClass: 2
Flags: HMW
LayerCount: 2
Fore
SplineSet
50 200 m 1
 50 300 l 1
 450 300 l 1
 450 200 l 1
 50 200 l 1
50 400 m 1
 50 501 l 1
 449 501 l 1
 449 400 l 1
 50 400 l 1
EndSplineSet
Colour: ffda6b
EndChar

StartChar: _.beh_k.init
Encoding: 65661 -1 125
GlifName: _.beh_k.init
Width: 375
VWidth: 1197
GlyphClass: 2
UnlinkRmOvrlpSave: 1
Flags: HMW
LayerCount: 2
Fore
SplineSet
-50 50 m 0
 -50 75 -26 99 -3 100 c 1
 71 100 l 2
 177 100 213 130 213 183 c 0
 213 232 182 299 149 381 c 1
 242 421 l 1
 287 325 311 243 311 178 c 0
 311 62 235 0 74 -0 c 2
 -3 -0 l 1
 -26 1 -50 24 -50 50 c 0
EndSplineSet
Colour: ffda6b
EndChar

StartChar: _.beh_k.medi
Encoding: 65662 -1 126
GlifName: _.beh_k.medi
Width: 461
VWidth: 1304
GlyphClass: 2
UnlinkRmOvrlpSave: 1
Flags: HMW
LayerCount: 2
Fore
SplineSet
-50 50 m 0
 -49 75 -27 99 -2 100 c 1
 83 100 l 2
 140 100 201 116 201 184 c 2
 201 321 l 1
 301 321 l 1
 301 184 l 2
 301 108 360 100 420 100 c 2
 461 100 l 1
 461 -0 l 1
 425 -0 l 2
 340 0 283 19 255 55 c 1
 218 18 161 0 83 -0 c 2
 0 -0 l 1
 -25 1 -50 24 -50 50 c 0
EndSplineSet
Colour: ffda6b
EndChar

StartChar: _.sing.3noqte
Encoding: 65663 -1 127
GlifName: _.sing.3noqte
Width: 716
VWidth: 1304
GlyphClass: 2
Flags: HMW
LayerCount: 2
Fore
SplineSet
50 84 m 1
 134 166 l 1
 215 84 l 1
 134 1 l 1
 50 84 l 1
280 84 m 1
 364 166 l 1
 445 84 l 1
 364 1 l 1
 280 84 l 1
501 84 m 1
 583 166 l 1
 666 84 l 1
 583 1 l 1
 501 84 l 1
EndSplineSet
Colour: ffda6b
EndChar

StartChar: s.khat_tire
Encoding: 8208 8208 138
GlifName: s.khat_tire
Width: 504
VWidth: 0
GlyphClass: 2
Flags: HMW
LayerCount: 2
Fore
SplineSet
55 229 m 1
 55 307 l 1
 451 307 l 1
 451 229 l 1
 55 229 l 1
EndSplineSet
Colour: d7d7d7
EndChar

StartChar: s.zwj
Encoding: 8205 8205 174
GlifName: s.zwj
Width: 0
VWidth: 1331
GlyphClass: 2
Flags: HMW
LayerCount: 2
Fore
SplineSet
25 -327 m 1
 -25 -327 l 1
 -25 579 l 1
 -111 491 l 1
 -141 521 l 1
 -30 631 l 1
 -141 740 l 1
 -111 772 l 1
 0 660 l 1
 111 772 l 1
 141 740 l 1
 30 631 l 1
 141 521 l 1
 111 491 l 1
 25 579 l 1
 25 -327 l 1
EndSplineSet
Colour: d7d7d7
EndChar

StartChar: s.tagsim
Encoding: 247 247 182
GlifName: s.tagsim
Width: 564
VWidth: 1278
GlyphClass: 2
Flags: HMW
LayerCount: 2
Fore
SplineSet
59 352 m 1
 59 429 l 1
 506 429 l 1
 506 352 l 1
 59 352 l 1
234 204 m 1
 234 299 l 1
 330 299 l 1
 330 204 l 1
 234 204 l 1
234 482 m 1
 234 577 l 1
 330 577 l 1
 330 482 l 1
 234 482 l 1
EndSplineSet
Colour: d7d7d7
EndChar

StartChar: s.zwnj
Encoding: 8204 8204 215
GlifName: s.zwnj
Width: 0
VWidth: 1331
GlyphClass: 2
Flags: HMW
LayerCount: 2
Fore
SplineSet
-25 -308 m 1
 -25 710 l 1
 25 710 l 1
 25 -308 l 1
 -25 -308 l 1
EndSplineSet
Colour: d7d7d7
EndChar

StartChar: s.dotted_circle
Encoding: 9676 9676 220
GlifName: s.dotted_circle
Width: 576
VWidth: 1890
GlyphClass: 2
Flags: HMW
LayerCount: 2
Fore
SplineSet
60 181 m 0
 60 196 67 203 82 203 c 0
 97 203 104 196 104 182 c 2
 104 180 l 2
 104 166 97 159 82 159 c 0
 67 159 60 166 60 181 c 0
76 103 m 0
 76 118 83 126 98 126 c 0
 113 126 120 118 120 103 c 0
 120 88 113 80 98 80 c 0
 83 80 76 88 76 103 c 0
76 259 m 0
 76 274 83 282 98 282 c 0
 113 282 120 274 120 259 c 0
 120 244 113 236 99 236 c 0
 84 236 76 244 76 259 c 0
120 34 m 0
 120 49 127 56 142 57 c 0
 157 56 164 49 165 34 c 0
 164 19 157 12 142 12 c 0
 127 12 120 19 120 34 c 0
120 326 m 0
 120 341 127 348 142 349 c 0
 157 348 164 341 165 326 c 0
 164 311 157 304 142 304 c 0
 127 304 120 311 120 326 c 0
187 -8 m 0
 187 7 195 14 210 14 c 0
 225 14 233 7 233 -8 c 0
 233 -23 225 -30 210 -30 c 0
 195 -30 187 -23 187 -8 c 0
187 372 m 0
 187 387 195 394 210 394 c 0
 225 394 233 387 233 372 c 0
 233 357 225 350 210 350 c 0
 195 350 187 357 187 372 c 0
310 -26 m 0
 310 -41 303 -48 288 -48 c 0
 273 -48 266 -41 265 -26 c 0
 266 -11 273 -4 288 -3 c 0
 303 -4 310 -11 310 -26 c 0
288 410 m 0
 303 410 310 403 310 388 c 0
 310 373 303 366 288 365 c 0
 273 366 266 373 265 388 c 0
 266 403 273 410 288 410 c 0
344 -8 m 0
 344 7 352 14 367 14 c 0
 382 14 390 7 390 -8 c 0
 390 -22 382 -30 367 -31 c 0
 352 -30 344 -22 344 -8 c 0
344 372 m 0
 344 387 352 394 367 394 c 0
 382 394 390 387 390 372 c 0
 390 358 382 350 367 349 c 0
 352 350 344 358 344 372 c 0
412 34 m 0
 412 49 419 56 434 57 c 0
 449 56 456 49 456 34 c 0
 456 19 449 12 434 12 c 0
 419 12 412 19 412 34 c 0
412 326 m 0
 412 341 419 348 434 349 c 0
 449 348 456 341 456 326 c 0
 456 311 449 304 434 304 c 0
 419 304 412 311 412 326 c 0
456 103 m 0
 456 118 463 126 478 126 c 0
 492 126 500 118 501 103 c 0
 500 88 492 80 478 80 c 0
 463 80 456 88 456 103 c 0
456 259 m 0
 456 274 463 282 478 282 c 0
 492 282 500 274 501 259 c 0
 500 244 492 236 478 236 c 0
 463 236 456 244 456 259 c 0
472 181 m 0
 472 196 479 203 494 203 c 0
 509 203 516 196 517 182 c 2
 517 180 l 2
 516 166 509 159 494 159 c 0
 479 159 472 166 472 181 c 0
EndSplineSet
Colour: d7d7d7
EndChar

StartChar: s.figure_dash
Encoding: 8210 8210 224
GlifName: s.figure_dash
Width: 600
VWidth: 0
GlyphClass: 2
Flags: HMW
LayerCount: 2
Fore
SplineSet
55 229 m 1
 55 307 l 1
 547 307 l 1
 547 229 l 1
 55 229 l 1
EndSplineSet
Colour: d7d7d7
EndChar

StartChar: s.em_dash
Encoding: 8212 8212 263
GlifName: s.em_dash
Width: 1200
VWidth: 1175
GlyphClass: 2
Flags: HMW
LayerCount: 2
Fore
SplineSet
55 229 m 1
 55 307 l 1
 1147 307 l 1
 1147 229 l 1
 55 229 l 1
EndSplineSet
Colour: d7d7d7
EndChar

StartChar: s.bullet
Encoding: 8226 8226 278
GlifName: s.bullet
Width: 602
VWidth: 1331
GlyphClass: 2
Flags: HMW
LayerCount: 2
Fore
SplineSet
532 432 m 0
 532 369 509 315 464 270 c 0
 419 225 365 202 302 202 c 0
 245 202 194 223 147 266 c 0
 100 309 77 357 77 410 c 0
 77 483 99 542 142 585 c 0
 185 628 236 650 295 650 c 0
 368 650 426 630 468 591 c 0
 510 552 532 499 532 432 c 0
EndSplineSet
Colour: d7d7d7
EndChar

StartChar: s.en_dash
Encoding: 8211 8211 310
GlifName: s.en_dash
Width: 600
VWidth: 1175
GlyphClass: 2
Flags: HMW
LayerCount: 2
Fore
SplineSet
55 229 m 1
 55 307 l 1
 547 307 l 1
 547 229 l 1
 55 229 l 1
EndSplineSet
Colour: d7d7d7
EndChar

StartChar: s.horizontal_bar
Encoding: 8213 8213 316
GlifName: s.horizontal_bar
Width: 2400
VWidth: 1175
GlyphClass: 2
Flags: HMW
LayerCount: 2
Fore
SplineSet
55 229 m 1
 55 307 l 1
 2347 307 l 1
 2347 229 l 1
 55 229 l 1
EndSplineSet
Colour: d7d7d7
EndChar

StartChar: s.lrm
Encoding: 8206 8206 317
GlifName: s.lrm
Width: 0
VWidth: 1331
GlyphClass: 2
Flags: HMW
LayerCount: 2
Fore
SplineSet
-25 -308 m 1
 -25 676 l 1
 196 676 l 1
 106 759 l 1
 138 790 l 1
 280 651 l 1
 138 510 l 1
 106 544 l 1
 196 628 l 1
 22 628 l 1
 22 -308 l 1
 -25 -308 l 1
EndSplineSet
Colour: d7d7d7
EndChar

StartChar: s.rlm
Encoding: 8207 8207 346
GlifName: s.rlm
Width: 0
VWidth: 1331
GlyphClass: 2
Flags: HMW
LayerCount: 2
Fore
SplineSet
22 676 m 1
 22 -308 l 1
 -25 -308 l 1
 -25 628 l 1
 -196 628 l 1
 -108 544 l 1
 -138 510 l 1
 -280 651 l 1
 -138 790 l 1
 -108 759 l 1
 -196 676 l 1
 22 676 l 1
EndSplineSet
Colour: d7d7d7
EndChar

StartChar: _.mark.he_yeh
Encoding: 65664 -1 400
GlifName: _.mark.he_yeh
Width: 209
VWidth: 1304
GlyphClass: 1
UnlinkRmOvrlpSave: 1
Flags: HMW
LayerCount: 2
Fore
SplineSet
192 89 m 2
 192 90 l 2
 192 95 184 100 167 104 c 0
 153 107 144 109 141 109 c 0
 122 114 113 124 113 141 c 0
 113 176 135 207 178 234 c 0
 191 241 202 245 210 245 c 1
 210 200 l 1
 186 200 165 187 147 162 c 1
 145 156 l 2
 145 152 157 146 180 138 c 0
 205 130 218 124 221 120 c 0
 224 115 226 106 226 92 c 0
 226 77 219 62 206 49 c 0
 169 12 101 -6 0 -6 c 1
 17 42 l 1
 96 42 150 53 178 75 c 0
 187 82 192 87 192 89 c 2
EndSplineSet
EndChar

StartChar: uni0000
Encoding: 0 0 401
GlifName: uni0000
Width: 497
VWidth: 0
GlyphClass: 2
Flags: HMW
LayerCount: 2
Fore
SplineSet
59 -251 m 1
 59 709 l 1
 438 709 l 1
 438 -251 l 1
 59 -251 l 1
105 -181 m 1
 387 -181 l 1
 387 648 l 1
 105 648 l 1
 105 -181 l 1
EndSplineSet
EndChar

StartChar: _.ghaf.medi
Encoding: 65665 -1 402
GlifName: _.ghaf.medi
Width: 636
VWidth: 0
GlyphClass: 2
Flags: HMW
LayerCount: 2
Fore
SplineSet
-50 50 m 0
 -50 75 -26 100 -1 100 c 2
 66 100 l 2
 134 100 191 108 238 125 c 0
 286 141 309 165 309 193 c 0
 308 230 297 259 276 285 c 0
 214 356 153 385 71 426 c 1
 84 560 l 1
 255 679 401 760 518 799 c 1
 545 704 l 1
 426 661 293 590 149 490 c 1
 289 408 392 327 457 248 c 0
 473 227 508 171 525 150 c 0
 544 123 588 100 636 100 c 1
 636 -0 l 1
 584 0 542 12 511 38 c 0
 479 64 451 98 429 144 c 0
 415 167 403 185 391 196 c 1
 391 154 375 118 345 87 c 0
 286 30 194 1 68 1 c 2
 0 1 l 2
 -26 1 -50 24 -50 50 c 0
92 698 m 1
 178 755 306 827 476 916 c 1
 502 854 l 1
 356 781 228 709 122 639 c 1
 92 698 l 1
EndSplineSet
Colour: ffda6b
EndChar

StartChar: _.ghaf.init
Encoding: 65666 -1 403
GlifName: _.ghaf.init
Width: 610
VWidth: 0
GlyphClass: 2
Flags: HMW
LayerCount: 2
Fore
SplineSet
52 100 m 2
 156 100 311 119 311 193 c 0
 311 250 272 304 193 356 c 0
 156 381 115 404 73 425 c 1
 85 557 l 1
 257 678 402 759 519 798 c 1
 546 703 l 1
 427 659 296 589 152 489 c 1
 268 423 340 355 371 290 c 0
 385 259 392 226 392 192 c 0
 392 115 340 66 282 42 c 0
 217 14 141 0 52 -0 c 2
 0 -0 l 2
 -26 0 -50 24 -50 50 c 0
 -50 76 -26 100 0 100 c 2
 52 100 l 2
92 698 m 1
 177 753 306 826 476 916 c 1
 502 854 l 1
 354 780 228 709 122 639 c 1
 92 698 l 1
EndSplineSet
Colour: ffda6b
EndChar

StartChar: _.la.isol.fa
Encoding: 65667 -1 404
Width: 635
VWidth: 0
Flags: HMW
LayerCount: 2
Fore
SplineSet
64 503 m 1
 123 596 l 1
 263 480 348 318 378 111 c 1
 437 142 467 178 467 224 c 2
 467 785 l 1
 570 801 l 1
 570 224 l 2
 570 219 571 214 571 209 c 0
 571 90 452 -21 134 -51 c 1
 122 44 l 1
 180 51 230 61 273 72 c 1
 248 269 178 412 64 503 c 1
EndSplineSet
Colour: ffda6b
EndChar

StartChar: _.la.fina.fa
Encoding: 65668 -1 405
Width: 718
VWidth: 0
Flags: HMW
LayerCount: 2
Fore
SplineSet
64 503 m 1
 123 596 l 1
 263 480 348 318 378 111 c 1
 437 142 467 178 467 224 c 2
 467 785 l 1
 570 801 l 1
 570 224 l 2
 570 143 620 102 718 102 c 1
 718 1 l 1
 608 1 539 33 511 98 c 1
 479 29 353 -20 134 -51 c 1
 122 44 l 1
 180 51 230 61 273 72 c 1
 248 269 178 412 64 503 c 1
EndSplineSet
Colour: ffda6b
EndChar

StartChar: _.sing.alef_maad
Encoding: 65671 -1 408
Width: 519
VWidth: 1352
Flags: HMW
LayerCount: 2
Fore
SplineSet
50 -0 m 1
 50 94 65 155 96 186 c 1
 143 181 188 173 239 173 c 0
 296 173 359 183 439 218 c 1
 469 120 l 1
 386 80 306 69 246 69 c 0
 200 69 166 76 151 81 c 1
 131 69 130 44 130 -0 c 1
 50 -0 l 1
EndSplineSet
Colour: ffda6b
EndChar

StartChar: _.sing.star
Encoding: 65672 -1 409
Width: 503
VWidth: 1197
Flags: HMW
LayerCount: 2
Fore
SplineSet
50 543 m 1
 72 609 l 1
 123 593 l 2
 136 589 154 582 177 572 c 0
 200 562 215 557 221 555 c 1
 220 561 220 570 219 582 c 0
 218 594 218 603 217 609 c 0
 217 615 216 624 216 635 c 0
 216 646 216 655 216 660 c 2
 216 714 l 1
 286 714 l 1
 286 660 l 2
 286 623 284 588 280 555 c 1
 290 558 306 565 329 574 c 0
 352 583 368 590 379 593 c 2
 430 609 l 1
 453 543 l 1
 401 525 l 2
 390 522 373 518 350 512 c 0
 327 506 310 501 299 498 c 1
 305 491 327 464 365 417 c 1
 397 373 l 1
 341 332 l 1
 309 375 l 2
 289 402 270 432 252 463 c 1
 216 408 197 379 194 375 c 2
 162 332 l 1
 105 373 l 1
 136 417 l 2
 145 426 167 453 203 498 c 1
 192 501 175 506 152 512 c 0
 129 518 113 522 102 525 c 2
 50 543 l 1
EndSplineSet
Colour: ffda6b
EndChar

StartChar: _.sing.zarb
Encoding: 65673 -1 410
Width: 453
VWidth: 1279
Flags: HMW
LayerCount: 2
Fore
SplineSet
50 194 m 1
 156 300 l 1
 50 406 l 1
 121 477 l 1
 227 372 l 1
 333 477 l 1
 403 406 l 1
 297 300 l 1
 403 194 l 1
 333 123 l 1
 227 230 l 1
 121 123 l 1
 50 194 l 1
EndSplineSet
Colour: ffda6b
EndChar

StartChar: _.sing.khateh_amoodi
Encoding: 65674 -1 411
Width: 200
VWidth: 1331
Flags: HMW
LayerCount: 2
Fore
SplineSet
50 -0 m 1
 50 341 l 1
 150 341 l 1
 150 -0 l 1
 50 -0 l 1
50 460 m 1
 50 801 l 1
 150 801 l 1
 150 460 l 1
 50 460 l 1
EndSplineSet
Colour: ffda6b
EndChar
